<svg width="1024" height="130" viewBox="0 0 1024 130" fill="none" xmlns="http://www.w3.org/2000/svg">
<rect x="0.5" y="0.5" width="1023" height="129" rx="19.5" fill="white" stroke="#555555"/>
<path d="M148.704 93.516C148.672 93.364 148.636 93.22 148.596 93.084C148.564 92.948 148.524 92.82 148.476 92.7L149.556 92.508C149.564 92.62 149.58 92.756 149.604 92.916C149.628 93.068 149.648 93.208 149.664 93.336C149.68 93.416 149.716 93.604 149.772 93.9C149.828 94.188 149.896 94.552 149.976 94.992C150.064 95.432 150.16 95.908 150.264 96.42C150.368 96.932 150.472 97.448 150.576 97.968C150.68 98.488 150.776 98.976 150.864 99.432C150.952 99.888 151.028 100.276 151.092 100.596C151.164 100.916 151.212 101.132 151.236 101.244C151.276 101.42 151.32 101.604 151.368 101.796C151.416 101.988 151.468 102.168 151.524 102.336L150.432 102.54C150.4 102.34 150.372 102.148 150.348 101.964C150.324 101.772 150.292 101.588 150.252 101.412C150.236 101.308 150.196 101.1 150.132 100.788C150.076 100.468 150.004 100.084 149.916 99.636C149.828 99.188 149.732 98.708 149.628 98.196C149.524 97.676 149.42 97.16 149.316 96.648C149.22 96.136 149.128 95.66 149.04 95.22C148.952 94.78 148.876 94.408 148.812 94.104C148.756 93.8 148.72 93.604 148.704 93.516ZM145.32 95.244C145.464 95.236 145.616 95.228 145.776 95.22C145.944 95.204 146.124 95.184 146.316 95.16C146.5 95.136 146.756 95.104 147.084 95.064C147.412 95.016 147.78 94.964 148.188 94.908C148.604 94.844 149.032 94.776 149.472 94.704C149.92 94.632 150.352 94.564 150.768 94.5C151.184 94.428 151.56 94.364 151.896 94.308C152.232 94.252 152.496 94.204 152.688 94.164C152.864 94.132 153.024 94.1 153.168 94.068C153.32 94.028 153.444 93.992 153.54 93.96L153.744 94.98C153.656 94.988 153.528 95.004 153.36 95.028C153.2 95.044 153.04 95.064 152.88 95.088C152.672 95.12 152.396 95.164 152.052 95.22C151.708 95.276 151.324 95.34 150.9 95.412C150.484 95.476 150.056 95.544 149.616 95.616C149.176 95.68 148.748 95.748 148.332 95.82C147.924 95.884 147.56 95.944 147.24 96C146.92 96.048 146.672 96.088 146.496 96.12C146.328 96.144 146.168 96.172 146.016 96.204C145.872 96.236 145.708 96.276 145.524 96.324L145.32 95.244ZM145.284 98.712C145.428 98.704 145.6 98.692 145.8 98.676C146 98.652 146.18 98.628 146.34 98.604C146.556 98.58 146.844 98.54 147.204 98.484C147.572 98.428 147.984 98.364 148.44 98.292C148.904 98.212 149.38 98.132 149.868 98.052C150.364 97.972 150.844 97.892 151.308 97.812C151.772 97.732 152.196 97.66 152.58 97.596C152.972 97.524 153.284 97.468 153.516 97.428C153.748 97.388 153.952 97.348 154.128 97.308C154.304 97.268 154.456 97.232 154.584 97.2L154.776 98.208C154.656 98.216 154.5 98.236 154.308 98.268C154.124 98.292 153.92 98.324 153.696 98.364C153.432 98.404 153.1 98.456 152.7 98.52C152.308 98.584 151.88 98.656 151.416 98.736C150.952 98.808 150.476 98.884 149.988 98.964C149.508 99.036 149.044 99.112 148.596 99.192C148.148 99.264 147.748 99.332 147.396 99.396C147.044 99.452 146.764 99.5 146.556 99.54C146.324 99.58 146.12 99.616 145.944 99.648C145.776 99.68 145.628 99.716 145.5 99.756L145.284 98.712ZM160.62 94.656C160.644 94.76 160.668 94.876 160.692 95.004C160.724 95.132 160.756 95.272 160.788 95.424C160.836 95.592 160.904 95.852 160.992 96.204C161.088 96.548 161.2 96.944 161.328 97.392C161.456 97.84 161.584 98.304 161.712 98.784C161.848 99.256 161.976 99.712 162.096 100.152C162.224 100.592 162.332 100.976 162.42 101.304C162.516 101.624 162.584 101.856 162.624 102C162.656 102.072 162.684 102.156 162.708 102.252C162.74 102.356 162.772 102.456 162.804 102.552C162.836 102.656 162.864 102.744 162.888 102.816L161.868 103.08C161.852 102.944 161.828 102.8 161.796 102.648C161.772 102.504 161.736 102.356 161.688 102.204C161.648 102.068 161.58 101.832 161.484 101.496C161.396 101.16 161.288 100.768 161.16 100.32C161.04 99.872 160.916 99.408 160.788 98.928C160.66 98.448 160.532 97.984 160.404 97.536C160.284 97.088 160.176 96.696 160.08 96.36C159.992 96.016 159.924 95.772 159.876 95.628C159.836 95.476 159.792 95.34 159.744 95.22C159.696 95.1 159.644 94.996 159.588 94.908L160.62 94.656ZM166.38 96.3C166.26 96.556 166.096 96.844 165.888 97.164C165.688 97.484 165.464 97.808 165.216 98.136C164.976 98.464 164.732 98.776 164.484 99.072C164.244 99.36 164.024 99.604 163.824 99.804L162.972 99.384C163.228 99.168 163.488 98.916 163.752 98.628C164.016 98.332 164.264 98.032 164.496 97.728C164.728 97.424 164.908 97.152 165.036 96.912C164.964 96.92 164.796 96.952 164.532 97.008C164.276 97.064 163.956 97.132 163.572 97.212C163.196 97.284 162.784 97.364 162.336 97.452C161.888 97.54 161.436 97.632 160.98 97.728C160.532 97.816 160.108 97.9 159.708 97.98C159.308 98.06 158.96 98.132 158.664 98.196C158.376 98.252 158.172 98.292 158.052 98.316L157.812 97.404C157.98 97.388 158.14 97.372 158.292 97.356C158.452 97.332 158.624 97.304 158.808 97.272C158.888 97.256 159.052 97.224 159.3 97.176C159.556 97.128 159.864 97.072 160.224 97.008C160.592 96.936 160.984 96.864 161.4 96.792C161.816 96.712 162.232 96.632 162.648 96.552C163.072 96.472 163.468 96.396 163.836 96.324C164.204 96.252 164.52 96.192 164.784 96.144C165.048 96.088 165.228 96.048 165.324 96.024C165.396 96.008 165.472 95.988 165.552 95.964C165.64 95.932 165.716 95.904 165.78 95.88L166.38 96.3ZM170.724 93.204C170.94 93.348 171.188 93.528 171.468 93.744C171.748 93.952 172.032 94.176 172.32 94.416C172.616 94.648 172.892 94.876 173.148 95.1C173.404 95.324 173.616 95.52 173.784 95.688L173.028 96.444C172.876 96.292 172.68 96.104 172.44 95.88C172.2 95.656 171.936 95.424 171.648 95.184C171.36 94.936 171.076 94.704 170.796 94.488C170.516 94.264 170.264 94.08 170.04 93.936L170.724 93.204ZM169.692 101.244C170.396 101.14 171.036 100.996 171.612 100.812C172.196 100.628 172.728 100.42 173.208 100.188C173.688 99.956 174.116 99.724 174.492 99.492C175.108 99.108 175.676 98.668 176.196 98.172C176.716 97.668 177.172 97.148 177.564 96.612C177.956 96.076 178.268 95.564 178.5 95.076L179.076 96.096C178.804 96.592 178.468 97.096 178.068 97.608C177.668 98.12 177.216 98.612 176.712 99.084C176.208 99.556 175.652 99.984 175.044 100.368C174.644 100.616 174.204 100.86 173.724 101.1C173.252 101.34 172.732 101.56 172.164 101.76C171.604 101.952 170.992 102.108 170.328 102.228L169.692 101.244ZM188.448 94.8C188.448 95.04 188.532 95.248 188.7 95.424C188.876 95.592 189.088 95.676 189.336 95.676C189.576 95.676 189.78 95.592 189.948 95.424C190.124 95.248 190.212 95.04 190.212 94.8C190.212 94.552 190.124 94.344 189.948 94.176C189.78 94.008 189.576 93.924 189.336 93.924C189.088 93.924 188.876 94.008 188.7 94.176C188.532 94.344 188.448 94.552 188.448 94.8ZM187.872 94.8C187.872 94.528 187.936 94.284 188.064 94.068C188.2 93.844 188.376 93.668 188.592 93.54C188.816 93.404 189.064 93.336 189.336 93.336C189.6 93.336 189.84 93.404 190.056 93.54C190.28 93.668 190.456 93.844 190.584 94.068C190.72 94.284 190.788 94.528 190.788 94.8C190.788 95.064 190.72 95.308 190.584 95.532C190.456 95.748 190.28 95.924 190.056 96.06C189.84 96.188 189.6 96.252 189.336 96.252C189.064 96.252 188.816 96.188 188.592 96.06C188.376 95.924 188.2 95.748 188.064 95.532C187.936 95.308 187.872 95.064 187.872 94.8ZM180.636 98.844C180.796 98.708 180.936 98.58 181.056 98.46C181.184 98.34 181.328 98.2 181.488 98.04C181.632 97.896 181.796 97.712 181.98 97.488C182.172 97.264 182.376 97.024 182.592 96.768C182.816 96.504 183.036 96.24 183.252 95.976C183.468 95.704 183.668 95.46 183.852 95.244C184.172 94.868 184.488 94.66 184.8 94.62C185.112 94.572 185.472 94.74 185.88 95.124C186.128 95.348 186.396 95.612 186.684 95.916C186.98 96.212 187.272 96.512 187.56 96.816C187.848 97.12 188.108 97.396 188.34 97.644C188.612 97.924 188.916 98.248 189.252 98.616C189.588 98.976 189.932 99.348 190.284 99.732C190.636 100.108 190.964 100.46 191.268 100.788L190.44 101.664C190.16 101.32 189.86 100.964 189.54 100.596C189.228 100.22 188.916 99.856 188.604 99.504C188.3 99.144 188.02 98.82 187.764 98.532C187.588 98.332 187.392 98.116 187.176 97.884C186.96 97.652 186.744 97.42 186.528 97.188C186.312 96.956 186.108 96.74 185.916 96.54C185.732 96.34 185.576 96.18 185.448 96.06C185.216 95.836 185.024 95.732 184.872 95.748C184.728 95.764 184.552 95.896 184.344 96.144C184.2 96.32 184.036 96.528 183.852 96.768C183.668 97 183.476 97.244 183.276 97.5C183.076 97.756 182.884 98 182.7 98.232C182.516 98.464 182.356 98.664 182.22 98.832C182.1 98.984 181.976 99.144 181.848 99.312C181.728 99.48 181.624 99.628 181.536 99.756L180.636 98.844ZM193.224 96.804C193.344 96.812 193.492 96.824 193.668 96.84C193.844 96.848 194.036 96.856 194.244 96.864C194.46 96.864 194.676 96.864 194.892 96.864C195.02 96.864 195.216 96.864 195.48 96.864C195.752 96.864 196.068 96.864 196.428 96.864C196.788 96.864 197.168 96.864 197.568 96.864C197.976 96.864 198.38 96.864 198.78 96.864C199.188 96.864 199.572 96.864 199.932 96.864C200.3 96.864 200.616 96.864 200.88 96.864C201.144 96.864 201.34 96.864 201.468 96.864C201.772 96.864 202.032 96.856 202.248 96.84C202.464 96.824 202.636 96.812 202.764 96.804V97.98C202.644 97.972 202.464 97.96 202.224 97.944C201.992 97.928 201.744 97.92 201.48 97.92C201.352 97.92 201.152 97.92 200.88 97.92C200.608 97.92 200.292 97.92 199.932 97.92C199.58 97.92 199.2 97.92 198.792 97.92C198.384 97.92 197.976 97.92 197.568 97.92C197.168 97.92 196.788 97.92 196.428 97.92C196.076 97.92 195.764 97.92 195.492 97.92C195.22 97.92 195.02 97.92 194.892 97.92C194.564 97.92 194.252 97.928 193.956 97.944C193.66 97.952 193.416 97.964 193.224 97.98V96.804ZM206.126 93.204C206.342 93.348 206.59 93.528 206.87 93.744C207.15 93.952 207.434 94.176 207.722 94.416C208.018 94.648 208.294 94.876 208.55 95.1C208.806 95.324 209.018 95.52 209.186 95.688L208.43 96.444C208.278 96.292 208.082 96.104 207.842 95.88C207.602 95.656 207.338 95.424 207.05 95.184C206.762 94.936 206.478 94.704 206.198 94.488C205.918 94.264 205.666 94.08 205.442 93.936L206.126 93.204ZM205.094 101.244C205.798 101.14 206.438 100.996 207.014 100.812C207.598 100.628 208.13 100.42 208.61 100.188C209.09 99.956 209.518 99.724 209.894 99.492C210.51 99.108 211.078 98.668 211.598 98.172C212.118 97.668 212.574 97.148 212.966 96.612C213.358 96.076 213.67 95.564 213.902 95.076L214.478 96.096C214.206 96.592 213.87 97.096 213.47 97.608C213.07 98.12 212.618 98.612 212.114 99.084C211.61 99.556 211.054 99.984 210.446 100.368C210.046 100.616 209.606 100.86 209.126 101.1C208.654 101.34 208.134 101.56 207.566 101.76C207.006 101.952 206.394 102.108 205.73 102.228L205.094 101.244ZM222.17 98.832L222.71 98.256C222.998 98.376 223.294 98.516 223.598 98.676C223.902 98.828 224.19 98.984 224.462 99.144C224.742 99.304 224.974 99.456 225.158 99.6L224.606 100.224C224.422 100.08 224.19 99.924 223.91 99.756C223.638 99.58 223.35 99.412 223.046 99.252C222.742 99.084 222.45 98.944 222.17 98.832ZM220.85 101.112L221.39 100.464C221.79 100.576 222.206 100.708 222.638 100.86C223.07 101.004 223.494 101.16 223.91 101.328C224.326 101.496 224.718 101.664 225.086 101.832C225.462 102 225.782 102.16 226.046 102.312L225.518 103.02C225.166 102.804 224.726 102.576 224.198 102.336C223.678 102.096 223.126 101.868 222.542 101.652C221.958 101.436 221.394 101.256 220.85 101.112ZM222.41 91.92L223.298 92.064C223.002 92.72 222.618 93.392 222.146 94.08C221.682 94.768 221.106 95.4 220.418 95.976C220.378 95.912 220.318 95.844 220.238 95.772C220.166 95.7 220.09 95.632 220.01 95.568C219.938 95.496 219.866 95.44 219.794 95.4C220.226 95.064 220.61 94.696 220.946 94.296C221.282 93.896 221.57 93.492 221.81 93.084C222.058 92.668 222.258 92.28 222.41 91.92ZM222.242 93.168H225.506V93.972H221.846L222.242 93.168ZM225.242 93.168H225.422L225.59 93.132L226.142 93.456C225.798 94.304 225.338 95.072 224.762 95.76C224.194 96.448 223.558 97.048 222.854 97.56C222.15 98.072 221.43 98.492 220.694 98.82C220.654 98.74 220.602 98.656 220.538 98.568C220.474 98.48 220.406 98.396 220.334 98.316C220.262 98.228 220.194 98.16 220.13 98.112C220.85 97.824 221.546 97.448 222.218 96.984C222.89 96.512 223.49 95.972 224.018 95.364C224.554 94.748 224.962 94.076 225.242 93.348V93.168ZM222.086 93.864C222.414 94.488 222.838 95.084 223.358 95.652C223.878 96.22 224.454 96.728 225.086 97.176C225.726 97.624 226.394 97.972 227.09 98.22C227.018 98.284 226.946 98.36 226.874 98.448C226.802 98.536 226.73 98.624 226.658 98.712C226.594 98.8 226.538 98.884 226.49 98.964C225.794 98.668 225.122 98.276 224.474 97.788C223.826 97.3 223.234 96.744 222.698 96.12C222.17 95.488 221.726 94.824 221.366 94.128L222.086 93.864ZM217.742 91.92L218.534 92.244C218.382 92.524 218.222 92.824 218.054 93.144C217.886 93.464 217.714 93.772 217.538 94.068C217.37 94.364 217.206 94.62 217.046 94.836L216.434 94.56C216.586 94.328 216.742 94.06 216.902 93.756C217.062 93.444 217.218 93.128 217.37 92.808C217.522 92.48 217.646 92.184 217.742 91.92ZM219.098 93.288L219.854 93.636C219.582 94.092 219.278 94.576 218.942 95.088C218.614 95.6 218.282 96.092 217.946 96.564C217.61 97.036 217.29 97.452 216.986 97.812L216.434 97.5C216.658 97.228 216.89 96.92 217.13 96.576C217.378 96.224 217.618 95.86 217.85 95.484C218.09 95.1 218.314 94.72 218.522 94.344C218.738 93.96 218.93 93.608 219.098 93.288ZM215.858 94.452L216.314 93.852C216.538 94.036 216.762 94.244 216.986 94.476C217.218 94.7 217.43 94.924 217.622 95.148C217.814 95.364 217.962 95.56 218.066 95.736L217.574 96.42C217.47 96.236 217.322 96.028 217.13 95.796C216.946 95.556 216.742 95.32 216.518 95.088C216.294 94.856 216.074 94.644 215.858 94.452ZM218.666 96.084L219.302 95.82C219.462 96.076 219.614 96.352 219.758 96.648C219.91 96.936 220.042 97.22 220.154 97.5C220.274 97.772 220.358 98.016 220.406 98.232L219.734 98.532C219.686 98.316 219.606 98.068 219.494 97.788C219.382 97.5 219.254 97.208 219.11 96.912C218.974 96.616 218.826 96.34 218.666 96.084ZM215.81 97.296C216.338 97.28 216.958 97.256 217.67 97.224C218.382 97.192 219.118 97.16 219.878 97.128L219.866 97.86C219.154 97.908 218.45 97.956 217.754 98.004C217.058 98.044 216.438 98.084 215.894 98.124L215.81 97.296ZM218.978 98.904L219.638 98.7C219.798 99.036 219.95 99.412 220.094 99.828C220.246 100.236 220.35 100.588 220.406 100.884L219.722 101.124C219.666 100.82 219.566 100.464 219.422 100.056C219.286 99.64 219.138 99.256 218.978 98.904ZM216.494 98.784L217.262 98.916C217.182 99.484 217.07 100.044 216.926 100.596C216.782 101.14 216.614 101.604 216.422 101.988C216.366 101.948 216.294 101.908 216.206 101.868C216.126 101.828 216.038 101.788 215.942 101.748C215.854 101.7 215.774 101.664 215.702 101.64C215.91 101.272 216.074 100.836 216.194 100.332C216.322 99.82 216.422 99.304 216.494 98.784ZM217.778 97.632H218.582V102.984H217.778V97.632ZM232.946 96.012H233.894V101.796C233.894 102.1 233.846 102.328 233.75 102.48C233.662 102.632 233.498 102.744 233.258 102.816C233.026 102.888 232.706 102.928 232.298 102.936C231.89 102.952 231.382 102.96 230.774 102.96C230.75 102.832 230.698 102.68 230.618 102.504C230.546 102.336 230.474 102.188 230.402 102.06C230.738 102.068 231.054 102.072 231.35 102.072C231.654 102.08 231.918 102.084 232.142 102.084C232.366 102.084 232.522 102.08 232.61 102.072C232.738 102.072 232.826 102.048 232.874 102C232.922 101.96 232.946 101.888 232.946 101.784V96.012ZM228.578 92.856H237.254V93.744H228.578V92.856ZM236.93 92.856H237.158L237.374 92.796L238.07 93.312C237.718 93.736 237.306 94.168 236.834 94.608C236.362 95.04 235.866 95.448 235.346 95.832C234.826 96.216 234.322 96.552 233.834 96.84C233.786 96.768 233.726 96.696 233.654 96.624C233.582 96.544 233.506 96.468 233.426 96.396C233.354 96.316 233.286 96.252 233.222 96.204C233.558 96.012 233.906 95.792 234.266 95.544C234.626 95.288 234.97 95.016 235.298 94.728C235.634 94.44 235.942 94.156 236.222 93.876C236.502 93.596 236.738 93.332 236.93 93.084V92.856ZM244.658 92.64C244.634 92.744 244.61 92.86 244.586 92.988C244.562 93.108 244.538 93.228 244.514 93.348C244.49 93.492 244.454 93.688 244.406 93.936C244.366 94.184 244.322 94.448 244.274 94.728C244.226 95 244.17 95.26 244.106 95.508C244.026 95.852 243.926 96.24 243.806 96.672C243.686 97.096 243.55 97.548 243.398 98.028C243.246 98.508 243.074 99 242.882 99.504C242.69 100 242.478 100.496 242.246 100.992C242.014 101.48 241.762 101.94 241.49 102.372L240.506 101.988C240.786 101.62 241.042 101.208 241.274 100.752C241.514 100.296 241.734 99.824 241.934 99.336C242.134 98.84 242.314 98.352 242.474 97.872C242.642 97.392 242.782 96.948 242.894 96.54C243.006 96.132 243.094 95.78 243.158 95.484C243.27 95.004 243.362 94.508 243.434 93.996C243.506 93.476 243.542 92.984 243.542 92.52L244.658 92.64ZM248.786 93.912C248.978 94.16 249.178 94.468 249.386 94.836C249.602 95.204 249.81 95.596 250.01 96.012C250.218 96.428 250.406 96.828 250.574 97.212C250.742 97.596 250.878 97.928 250.982 98.208L250.046 98.652C249.958 98.348 249.838 98 249.686 97.608C249.534 97.208 249.358 96.804 249.158 96.396C248.966 95.98 248.762 95.592 248.546 95.232C248.338 94.864 248.126 94.556 247.91 94.308L248.786 93.912ZM240.338 95.268C240.522 95.284 240.698 95.292 240.866 95.292C241.034 95.284 241.214 95.276 241.406 95.268C241.59 95.26 241.822 95.248 242.102 95.232C242.382 95.208 242.686 95.184 243.014 95.16C243.35 95.136 243.678 95.112 243.998 95.088C244.326 95.056 244.626 95.032 244.898 95.016C245.178 94.992 245.398 94.98 245.558 94.98C245.918 94.98 246.242 95.036 246.53 95.148C246.826 95.26 247.062 95.464 247.238 95.76C247.414 96.056 247.502 96.472 247.502 97.008C247.502 97.48 247.478 97.992 247.43 98.544C247.39 99.088 247.318 99.608 247.214 100.104C247.11 100.6 246.974 101.012 246.806 101.34C246.622 101.748 246.382 102.016 246.086 102.144C245.79 102.28 245.446 102.348 245.054 102.348C244.83 102.348 244.586 102.328 244.322 102.288C244.058 102.256 243.83 102.216 243.638 102.168L243.482 101.172C243.658 101.22 243.834 101.264 244.01 101.304C244.194 101.344 244.37 101.372 244.538 101.388C244.706 101.404 244.846 101.412 244.958 101.412C245.174 101.412 245.37 101.376 245.546 101.304C245.73 101.224 245.882 101.056 246.002 100.8C246.13 100.528 246.234 100.188 246.314 99.78C246.402 99.364 246.466 98.924 246.506 98.46C246.554 97.996 246.578 97.552 246.578 97.128C246.578 96.752 246.526 96.476 246.422 96.3C246.318 96.116 246.17 95.992 245.978 95.928C245.786 95.856 245.562 95.82 245.306 95.82C245.098 95.82 244.822 95.836 244.478 95.868C244.134 95.892 243.766 95.924 243.374 95.964C242.99 96.004 242.63 96.044 242.294 96.084C241.958 96.116 241.698 96.144 241.514 96.168C241.378 96.184 241.202 96.208 240.986 96.24C240.778 96.264 240.594 96.288 240.434 96.312L240.338 95.268ZM255.422 92.592C255.678 92.672 256.01 92.76 256.418 92.856C256.834 92.952 257.27 93.048 257.726 93.144C258.19 93.232 258.63 93.312 259.046 93.384C259.462 93.448 259.802 93.492 260.066 93.516L259.838 94.44C259.614 94.408 259.338 94.364 259.01 94.308C258.69 94.252 258.346 94.188 257.978 94.116C257.61 94.044 257.246 93.972 256.886 93.9C256.526 93.82 256.198 93.748 255.902 93.684C255.606 93.612 255.366 93.552 255.182 93.504L255.422 92.592ZM255.158 94.776C255.118 94.984 255.074 95.24 255.026 95.544C254.986 95.84 254.942 96.152 254.894 96.48C254.846 96.808 254.802 97.12 254.762 97.416C254.722 97.712 254.686 97.956 254.654 98.148C255.238 97.644 255.854 97.276 256.502 97.044C257.158 96.804 257.846 96.684 258.566 96.684C259.182 96.684 259.718 96.796 260.174 97.02C260.63 97.236 260.986 97.536 261.242 97.92C261.498 98.296 261.626 98.72 261.626 99.192C261.626 99.728 261.502 100.216 261.254 100.656C261.014 101.088 260.634 101.452 260.114 101.748C259.602 102.044 258.946 102.252 258.146 102.372C257.346 102.5 256.386 102.516 255.266 102.42L254.978 101.436C256.25 101.588 257.302 101.584 258.134 101.424C258.966 101.256 259.586 100.976 259.994 100.584C260.41 100.184 260.618 99.712 260.618 99.168C260.618 98.848 260.526 98.564 260.342 98.316C260.158 98.068 259.906 97.876 259.586 97.74C259.274 97.596 258.914 97.524 258.506 97.524C257.722 97.524 257.01 97.668 256.37 97.956C255.738 98.236 255.21 98.628 254.786 99.132C254.698 99.236 254.626 99.34 254.57 99.444C254.514 99.54 254.466 99.636 254.426 99.732L253.538 99.516C253.586 99.292 253.634 99.024 253.682 98.712C253.73 98.392 253.778 98.052 253.826 97.692C253.874 97.324 253.918 96.956 253.958 96.588C254.006 96.22 254.046 95.868 254.078 95.532C254.11 95.188 254.134 94.892 254.15 94.644L255.158 94.776ZM269.546 97.068L270.278 96.696C270.502 96.984 270.726 97.292 270.95 97.62C271.174 97.948 271.374 98.276 271.55 98.604C271.734 98.924 271.874 99.212 271.97 99.468L271.166 99.888C271.086 99.632 270.958 99.34 270.782 99.012C270.614 98.684 270.422 98.352 270.206 98.016C269.99 97.672 269.77 97.356 269.546 97.068ZM269.606 94.092H274.178V94.944H269.606V94.092ZM273.806 94.092H274.682C274.682 94.092 274.682 94.124 274.682 94.188C274.682 94.244 274.682 94.308 274.682 94.38C274.682 94.452 274.678 94.508 274.67 94.548C274.622 95.908 274.57 97.056 274.514 97.992C274.466 98.928 274.406 99.7 274.334 100.308C274.27 100.908 274.194 101.376 274.106 101.712C274.018 102.048 273.91 102.288 273.782 102.432C273.654 102.608 273.514 102.728 273.362 102.792C273.21 102.856 273.022 102.9 272.798 102.924C272.598 102.948 272.326 102.956 271.982 102.948C271.638 102.94 271.286 102.928 270.926 102.912C270.918 102.776 270.886 102.62 270.83 102.444C270.782 102.276 270.718 102.132 270.638 102.012C271.038 102.044 271.406 102.064 271.742 102.072C272.086 102.08 272.33 102.084 272.474 102.084C272.602 102.084 272.706 102.072 272.786 102.048C272.866 102.024 272.938 101.972 273.002 101.892C273.106 101.788 273.198 101.576 273.278 101.256C273.358 100.928 273.43 100.468 273.494 99.876C273.558 99.284 273.614 98.528 273.662 97.608C273.71 96.688 273.758 95.58 273.806 94.284V94.092ZM270.062 91.908L270.974 92.112C270.806 92.688 270.602 93.256 270.362 93.816C270.13 94.368 269.874 94.884 269.594 95.364C269.314 95.844 269.022 96.268 268.718 96.636C268.654 96.588 268.574 96.532 268.478 96.468C268.382 96.396 268.282 96.328 268.178 96.264C268.074 96.192 267.982 96.136 267.902 96.096C268.222 95.76 268.514 95.372 268.778 94.932C269.05 94.484 269.294 94 269.51 93.48C269.726 92.96 269.91 92.436 270.062 91.908ZM265.742 91.92L266.546 92.232C266.402 92.52 266.242 92.824 266.066 93.144C265.89 93.464 265.718 93.772 265.55 94.068C265.382 94.356 265.218 94.612 265.058 94.836L264.434 94.56C264.586 94.328 264.742 94.06 264.902 93.756C265.062 93.444 265.218 93.128 265.37 92.808C265.522 92.48 265.646 92.184 265.742 91.92ZM267.194 93.288L267.986 93.624C267.706 94.08 267.394 94.56 267.05 95.064C266.714 95.56 266.374 96.044 266.03 96.516C265.686 96.988 265.362 97.396 265.058 97.74L264.482 97.44C264.714 97.168 264.954 96.86 265.202 96.516C265.45 96.172 265.694 95.812 265.934 95.436C266.182 95.06 266.414 94.688 266.63 94.32C266.846 93.952 267.034 93.608 267.194 93.288ZM263.858 94.452L264.302 93.852C264.526 94.036 264.754 94.24 264.986 94.464C265.218 94.688 265.43 94.912 265.622 95.136C265.814 95.352 265.962 95.548 266.066 95.724L265.586 96.42C265.474 96.228 265.322 96.016 265.13 95.784C264.946 95.552 264.742 95.32 264.518 95.088C264.294 94.856 264.074 94.644 263.858 94.452ZM266.81 96.072L267.482 95.784C267.658 96.048 267.826 96.328 267.986 96.624C268.146 96.92 268.286 97.208 268.406 97.488C268.534 97.768 268.626 98.02 268.682 98.244L267.974 98.58C267.91 98.356 267.818 98.1 267.698 97.812C267.578 97.524 267.442 97.228 267.29 96.924C267.138 96.62 266.978 96.336 266.81 96.072ZM263.834 97.284C264.37 97.268 265.014 97.248 265.766 97.224C266.518 97.192 267.29 97.156 268.082 97.116V97.86C267.322 97.908 266.578 97.952 265.85 97.992C265.122 98.032 264.474 98.068 263.906 98.1L263.834 97.284ZM267.122 98.952L267.794 98.724C267.97 99.092 268.134 99.492 268.286 99.924C268.446 100.356 268.558 100.728 268.622 101.04L267.878 101.292C267.822 100.972 267.722 100.596 267.578 100.164C267.434 99.724 267.282 99.32 267.122 98.952ZM264.494 98.784L265.262 98.916C265.182 99.484 265.07 100.044 264.926 100.596C264.782 101.14 264.614 101.604 264.422 101.988C264.366 101.948 264.294 101.908 264.206 101.868C264.126 101.828 264.038 101.788 263.942 101.748C263.854 101.7 263.774 101.664 263.702 101.64C263.91 101.272 264.074 100.836 264.194 100.332C264.322 99.82 264.422 99.304 264.494 98.784ZM265.874 97.632H266.69V102.984H265.874V97.632ZM281.642 102H275.978V101.124L278.222 98.856C278.646 98.424 279.006 98.04 279.302 97.704C279.606 97.368 279.834 97.04 279.986 96.72C280.138 96.4 280.214 96.044 280.214 95.652C280.214 95.18 280.074 94.824 279.794 94.584C279.514 94.336 279.15 94.212 278.702 94.212C278.278 94.212 277.91 94.284 277.598 94.428C277.286 94.572 276.966 94.772 276.638 95.028L276.074 94.32C276.41 94.04 276.794 93.804 277.226 93.612C277.666 93.412 278.158 93.312 278.702 93.312C279.502 93.312 280.134 93.516 280.598 93.924C281.062 94.332 281.294 94.888 281.294 95.592C281.294 96.04 281.202 96.46 281.018 96.852C280.834 97.244 280.578 97.632 280.25 98.016C279.922 98.4 279.538 98.804 279.098 99.228L277.31 100.992V101.04H281.642V102ZM287.43 94.884C287.39 94.996 287.35 95.104 287.31 95.208C287.27 95.304 287.234 95.404 287.202 95.508C287.146 95.676 287.074 95.868 286.986 96.084C286.898 96.292 286.806 96.5 286.71 96.708C286.614 96.908 286.522 97.084 286.434 97.236C286.29 97.5 286.11 97.78 285.894 98.076C285.686 98.364 285.474 98.636 285.258 98.892C285.042 99.14 284.838 99.344 284.646 99.504L283.77 98.988C284.018 98.804 284.254 98.592 284.478 98.352C284.71 98.104 284.918 97.852 285.102 97.596C285.294 97.34 285.454 97.108 285.582 96.9C285.742 96.636 285.874 96.372 285.978 96.108C286.082 95.844 286.166 95.596 286.23 95.364C286.262 95.252 286.29 95.136 286.314 95.016C286.338 94.888 286.354 94.768 286.362 94.656L287.43 94.884ZM286.23 96.564C286.334 96.564 286.526 96.564 286.806 96.564C287.086 96.564 287.414 96.564 287.79 96.564C288.174 96.564 288.57 96.564 288.978 96.564C289.386 96.564 289.774 96.564 290.142 96.564C290.51 96.564 290.822 96.564 291.078 96.564C291.342 96.564 291.51 96.564 291.582 96.564C291.71 96.564 291.862 96.56 292.038 96.552C292.214 96.544 292.374 96.528 292.518 96.504V97.452C292.358 97.436 292.19 97.428 292.014 97.428C291.846 97.42 291.702 97.416 291.582 97.416C291.51 97.416 291.342 97.416 291.078 97.416C290.822 97.416 290.506 97.416 290.13 97.416C289.762 97.416 289.37 97.416 288.954 97.416C288.546 97.416 288.15 97.416 287.766 97.416C287.382 97.416 287.042 97.416 286.746 97.416C286.458 97.416 286.258 97.416 286.146 97.416L286.23 96.564ZM289.842 97.044C289.802 98.044 289.658 98.92 289.41 99.672C289.162 100.416 288.814 101.06 288.366 101.604C287.926 102.14 287.394 102.596 286.77 102.972L285.822 102.348C285.95 102.292 286.11 102.208 286.302 102.096C286.494 101.984 286.65 101.884 286.77 101.796C287.018 101.596 287.262 101.36 287.502 101.088C287.75 100.808 287.974 100.48 288.174 100.104C288.382 99.728 288.55 99.288 288.678 98.784C288.814 98.28 288.89 97.7 288.906 97.044H289.842ZM297.318 92.556H303.57V93.432H297.318V92.556ZM297.318 95.448H303.63V96.3H297.318V95.448ZM297.222 98.34H303.57V99.216H297.222V98.34ZM296.754 92.556H297.666V96.252C297.666 96.772 297.638 97.328 297.582 97.92C297.534 98.512 297.43 99.112 297.27 99.72C297.11 100.32 296.87 100.9 296.55 101.46C296.238 102.02 295.822 102.524 295.302 102.972C295.262 102.908 295.198 102.832 295.11 102.744C295.03 102.656 294.946 102.572 294.858 102.492C294.77 102.42 294.69 102.364 294.618 102.324C295.106 101.892 295.49 101.428 295.77 100.932C296.058 100.428 296.27 99.908 296.406 99.372C296.55 98.836 296.642 98.304 296.682 97.776C296.73 97.24 296.754 96.732 296.754 96.252V92.556ZM303.174 92.556H304.122V101.628C304.122 101.948 304.074 102.192 303.978 102.36C303.882 102.528 303.722 102.652 303.498 102.732C303.266 102.812 302.942 102.86 302.526 102.876C302.11 102.9 301.582 102.912 300.942 102.912C300.926 102.816 300.894 102.712 300.846 102.6C300.806 102.488 300.758 102.372 300.702 102.252C300.654 102.14 300.606 102.044 300.558 101.964C300.894 101.972 301.214 101.98 301.518 101.988C301.83 101.988 302.098 101.988 302.322 101.988C302.554 101.98 302.714 101.976 302.802 101.976C302.946 101.968 303.042 101.94 303.09 101.892C303.146 101.836 303.174 101.744 303.174 101.616V92.556ZM313.002 96.804L313.83 97.056C313.566 97.528 313.246 97.976 312.87 98.4C312.494 98.824 312.094 99.216 311.67 99.576C311.246 99.936 310.814 100.252 310.374 100.524C310.334 100.46 310.278 100.388 310.206 100.308C310.134 100.22 310.058 100.132 309.978 100.044C309.898 99.956 309.826 99.888 309.762 99.84C310.402 99.496 311.014 99.06 311.598 98.532C312.19 98.004 312.658 97.428 313.002 96.804ZM313.074 91.92L313.878 92.328C313.574 92.688 313.246 93.06 312.894 93.444C312.55 93.82 312.23 94.144 311.934 94.416L311.286 94.044C311.486 93.852 311.694 93.632 311.91 93.384C312.134 93.136 312.35 92.884 312.558 92.628C312.766 92.372 312.938 92.136 313.074 91.92ZM315.402 92.832L316.218 93.276C315.818 93.708 315.374 94.16 314.886 94.632C314.406 95.096 313.918 95.548 313.422 95.988C312.934 96.42 312.47 96.796 312.03 97.116L311.418 96.72C311.746 96.472 312.09 96.188 312.45 95.868C312.81 95.548 313.166 95.216 313.518 94.872C313.878 94.52 314.218 94.172 314.538 93.828C314.866 93.476 315.154 93.144 315.402 92.832ZM310.302 93.864L310.854 93.276C311.15 93.476 311.462 93.696 311.79 93.936C312.126 94.176 312.438 94.42 312.726 94.668C313.014 94.908 313.242 95.132 313.41 95.34L312.846 95.988C312.67 95.788 312.442 95.56 312.162 95.304C311.882 95.048 311.578 94.796 311.25 94.548C310.93 94.292 310.614 94.064 310.302 93.864ZM315.246 95.28L315.954 94.908C316.21 95.164 316.466 95.448 316.722 95.76C316.978 96.072 317.214 96.38 317.43 96.684C317.654 96.988 317.826 97.264 317.946 97.512L317.19 97.956C317.078 97.708 316.914 97.432 316.698 97.128C316.49 96.816 316.258 96.5 316.002 96.18C315.754 95.852 315.502 95.552 315.246 95.28ZM309.894 96.48C310.47 96.472 311.138 96.46 311.898 96.444C312.666 96.428 313.482 96.412 314.346 96.396C315.218 96.372 316.086 96.348 316.95 96.324L316.914 97.068C316.082 97.092 315.246 97.12 314.406 97.152C313.566 97.184 312.766 97.212 312.006 97.236C311.246 97.26 310.57 97.28 309.978 97.296L309.894 96.48ZM312.222 98.676C312.574 99.252 313.034 99.78 313.602 100.26C314.178 100.732 314.834 101.136 315.57 101.472C316.314 101.8 317.11 102.044 317.958 102.204C317.894 102.268 317.826 102.344 317.754 102.432C317.682 102.528 317.614 102.62 317.55 102.708C317.494 102.804 317.446 102.892 317.406 102.972C316.542 102.772 315.734 102.484 314.982 102.108C314.23 101.732 313.558 101.276 312.966 100.74C312.374 100.204 311.882 99.6 311.49 98.928L312.222 98.676ZM312.498 98.148H316.074V98.868H311.874L312.498 98.148ZM315.786 98.148H315.966L316.122 98.112L316.698 98.388C316.418 99.036 316.05 99.612 315.594 100.116C315.138 100.612 314.618 101.048 314.034 101.424C313.458 101.8 312.842 102.116 312.186 102.372C311.53 102.628 310.858 102.836 310.17 102.996C310.13 102.884 310.066 102.748 309.978 102.588C309.89 102.436 309.806 102.312 309.726 102.216C310.366 102.088 310.994 101.912 311.61 101.688C312.234 101.464 312.818 101.192 313.362 100.872C313.906 100.544 314.386 100.164 314.802 99.732C315.226 99.3 315.554 98.82 315.786 98.292V98.148ZM309.486 94.368L310.29 94.656C310.018 95.136 309.702 95.612 309.342 96.084C308.99 96.548 308.614 96.988 308.214 97.404C307.822 97.82 307.43 98.188 307.038 98.508C307.006 98.444 306.958 98.364 306.894 98.268C306.838 98.164 306.774 98.06 306.702 97.956C306.638 97.852 306.578 97.772 306.522 97.716C306.89 97.436 307.254 97.12 307.614 96.768C307.982 96.408 308.326 96.024 308.646 95.616C308.966 95.2 309.246 94.784 309.486 94.368ZM309.198 91.92L310.014 92.244C309.782 92.572 309.506 92.912 309.186 93.264C308.874 93.616 308.542 93.948 308.19 94.26C307.846 94.572 307.502 94.852 307.158 95.1C307.126 95.036 307.078 94.964 307.014 94.884C306.958 94.804 306.898 94.724 306.834 94.644C306.77 94.556 306.714 94.488 306.666 94.44C306.978 94.224 307.294 93.976 307.614 93.696C307.942 93.408 308.246 93.112 308.526 92.808C308.806 92.504 309.03 92.208 309.198 91.92ZM308.394 96.6L309.126 95.856L309.246 95.916V102.996H308.394V96.6ZM323.742 93.9C324.07 93.948 324.45 93.988 324.882 94.02C325.322 94.044 325.774 94.056 326.238 94.056C326.71 94.048 327.158 94.032 327.582 94.008C328.014 93.976 328.378 93.936 328.674 93.888V94.86C328.354 94.892 327.978 94.92 327.546 94.944C327.122 94.96 326.678 94.968 326.214 94.968C325.758 94.968 325.314 94.96 324.882 94.944C324.45 94.92 324.07 94.892 323.742 94.86V93.9ZM324.21 98.784C324.154 99 324.11 99.196 324.078 99.372C324.046 99.548 324.03 99.72 324.03 99.888C324.03 100.024 324.058 100.16 324.114 100.296C324.178 100.424 324.282 100.54 324.426 100.644C324.578 100.74 324.786 100.82 325.05 100.884C325.314 100.94 325.65 100.968 326.058 100.968C326.602 100.968 327.114 100.944 327.594 100.896C328.074 100.84 328.554 100.76 329.034 100.656L329.058 101.664C328.682 101.744 328.242 101.808 327.738 101.856C327.242 101.896 326.682 101.916 326.058 101.916C325.05 101.916 324.31 101.756 323.838 101.436C323.374 101.116 323.142 100.676 323.142 100.116C323.142 99.916 323.158 99.704 323.19 99.48C323.23 99.248 323.282 98.988 323.346 98.7L324.21 98.784ZM321.45 92.976C321.434 93.04 321.41 93.124 321.378 93.228C321.354 93.324 321.326 93.424 321.294 93.528C321.27 93.624 321.25 93.708 321.234 93.78C321.194 94.004 321.146 94.264 321.09 94.56C321.034 94.848 320.978 95.16 320.922 95.496C320.874 95.824 320.826 96.16 320.778 96.504C320.738 96.84 320.702 97.168 320.67 97.488C320.646 97.808 320.634 98.104 320.634 98.376C320.634 98.672 320.642 98.952 320.658 99.216C320.682 99.48 320.71 99.76 320.742 100.056C320.814 99.872 320.89 99.676 320.97 99.468C321.05 99.26 321.13 99.056 321.21 98.856C321.298 98.648 321.374 98.464 321.438 98.304L321.942 98.688C321.838 98.976 321.726 99.292 321.606 99.636C321.486 99.98 321.378 100.312 321.282 100.632C321.194 100.944 321.13 101.192 321.09 101.376C321.074 101.464 321.058 101.56 321.042 101.664C321.026 101.768 321.022 101.852 321.03 101.916C321.038 101.98 321.042 102.048 321.042 102.12C321.05 102.2 321.058 102.272 321.066 102.336L320.202 102.396C320.082 101.972 319.978 101.428 319.89 100.764C319.802 100.092 319.758 99.352 319.758 98.544C319.758 98.104 319.778 97.656 319.818 97.2C319.858 96.736 319.91 96.288 319.974 95.856C320.038 95.416 320.098 95.016 320.154 94.656C320.218 94.288 320.266 93.98 320.298 93.732C320.322 93.588 320.342 93.444 320.358 93.3C320.374 93.148 320.382 93.008 320.382 92.88L321.45 92.976ZM339.93 93.384C339.93 93.6 340.006 93.788 340.158 93.948C340.318 94.1 340.506 94.176 340.722 94.176C340.946 94.176 341.134 94.1 341.286 93.948C341.446 93.788 341.526 93.6 341.526 93.384C341.526 93.16 341.446 92.972 341.286 92.82C341.134 92.66 340.946 92.58 340.722 92.58C340.506 92.58 340.318 92.66 340.158 92.82C340.006 92.972 339.93 93.16 339.93 93.384ZM339.378 93.384C339.378 93.136 339.438 92.912 339.558 92.712C339.686 92.504 339.85 92.34 340.05 92.22C340.25 92.092 340.474 92.028 340.722 92.028C340.97 92.028 341.194 92.092 341.394 92.22C341.602 92.34 341.766 92.504 341.886 92.712C342.014 92.912 342.078 93.136 342.078 93.384C342.078 93.632 342.014 93.856 341.886 94.056C341.766 94.256 341.602 94.42 341.394 94.548C341.194 94.668 340.97 94.728 340.722 94.728C340.474 94.728 340.25 94.668 340.05 94.548C339.85 94.42 339.686 94.256 339.558 94.056C339.438 93.856 339.378 93.632 339.378 93.384ZM340.422 94.188C340.382 94.268 340.346 94.36 340.314 94.464C340.29 94.56 340.266 94.668 340.242 94.788C340.178 95.1 340.094 95.448 339.99 95.832C339.886 96.216 339.758 96.612 339.606 97.02C339.462 97.42 339.294 97.808 339.102 98.184C338.91 98.56 338.694 98.904 338.454 99.216C338.086 99.68 337.678 100.112 337.23 100.512C336.782 100.912 336.27 101.272 335.694 101.592C335.118 101.912 334.462 102.188 333.726 102.42L332.91 101.52C333.694 101.328 334.37 101.088 334.938 100.8C335.514 100.512 336.018 100.188 336.45 99.828C336.882 99.46 337.262 99.064 337.59 98.64C337.878 98.272 338.126 97.86 338.334 97.404C338.55 96.94 338.73 96.476 338.874 96.012C339.018 95.54 339.114 95.112 339.162 94.728C339.05 94.728 338.838 94.728 338.526 94.728C338.214 94.728 337.846 94.728 337.422 94.728C336.998 94.728 336.554 94.728 336.09 94.728C335.634 94.728 335.194 94.728 334.77 94.728C334.346 94.728 333.978 94.728 333.666 94.728C333.354 94.728 333.142 94.728 333.03 94.728C332.79 94.728 332.57 94.732 332.37 94.74C332.17 94.748 331.99 94.756 331.83 94.764V93.696C331.942 93.712 332.066 93.728 332.202 93.744C332.338 93.752 332.478 93.76 332.622 93.768C332.766 93.776 332.902 93.78 333.03 93.78C333.126 93.78 333.298 93.78 333.546 93.78C333.794 93.78 334.086 93.78 334.422 93.78C334.766 93.78 335.13 93.78 335.514 93.78C335.906 93.78 336.29 93.78 336.666 93.78C337.05 93.78 337.406 93.78 337.734 93.78C338.07 93.78 338.354 93.78 338.586 93.78C338.818 93.78 338.974 93.78 339.054 93.78C339.142 93.78 339.242 93.776 339.354 93.768C339.466 93.76 339.578 93.744 339.69 93.72L340.422 94.188ZM344.934 101.616C344.982 101.52 345.014 101.428 345.03 101.34C345.046 101.252 345.054 101.148 345.054 101.028C345.054 100.908 345.054 100.684 345.054 100.356C345.054 100.028 345.054 99.636 345.054 99.18C345.054 98.724 345.054 98.248 345.054 97.752C345.054 97.248 345.054 96.76 345.054 96.288C345.054 95.808 345.054 95.384 345.054 95.016C345.054 94.64 345.054 94.356 345.054 94.164C345.054 94.06 345.046 93.936 345.03 93.792C345.022 93.648 345.01 93.512 344.994 93.384C344.986 93.256 344.97 93.152 344.946 93.072H346.134C346.11 93.216 346.09 93.392 346.074 93.6C346.058 93.8 346.05 93.988 346.05 94.164C346.05 94.324 346.05 94.556 346.05 94.86C346.05 95.164 346.05 95.512 346.05 95.904C346.05 96.288 346.05 96.696 346.05 97.128C346.05 97.56 346.05 97.984 346.05 98.4C346.05 98.816 346.05 99.204 346.05 99.564C346.05 99.916 346.05 100.216 346.05 100.464C346.05 100.712 346.05 100.88 346.05 100.968C346.626 100.824 347.218 100.62 347.826 100.356C348.442 100.092 349.042 99.784 349.626 99.432C350.218 99.072 350.77 98.68 351.282 98.256C351.802 97.824 352.246 97.364 352.614 96.876L353.154 97.716C352.378 98.684 351.386 99.532 350.178 100.26C348.978 100.988 347.63 101.568 346.134 102C346.07 102.016 345.994 102.04 345.906 102.072C345.818 102.112 345.726 102.16 345.63 102.216L344.934 101.616ZM363.414 92.448C363.518 92.592 363.63 92.764 363.75 92.964C363.87 93.156 363.986 93.352 364.098 93.552C364.218 93.752 364.318 93.932 364.398 94.092L363.75 94.38C363.63 94.14 363.478 93.86 363.294 93.54C363.11 93.22 362.938 92.948 362.778 92.724L363.414 92.448ZM364.734 91.968C364.846 92.112 364.962 92.284 365.082 92.484C365.21 92.684 365.334 92.884 365.454 93.084C365.574 93.276 365.67 93.448 365.742 93.6L365.094 93.888C364.966 93.624 364.81 93.34 364.626 93.036C364.45 92.732 364.274 92.468 364.098 92.244L364.734 91.968ZM357.774 100.668C357.774 100.484 357.774 100.224 357.774 99.888C357.774 99.552 357.774 99.172 357.774 98.748C357.774 98.324 357.774 97.884 357.774 97.428C357.774 96.964 357.774 96.516 357.774 96.084C357.774 95.644 357.774 95.248 357.774 94.896C357.774 94.536 357.774 94.252 357.774 94.044C357.774 93.924 357.774 93.8 357.774 93.672C357.774 93.544 357.766 93.42 357.75 93.3C357.742 93.172 357.726 93.052 357.702 92.94H358.83C358.806 93.116 358.786 93.3 358.77 93.492C358.762 93.684 358.758 93.868 358.758 94.044C358.758 94.252 358.758 94.524 358.758 94.86C358.758 95.196 358.758 95.572 358.758 95.988C358.758 96.404 358.758 96.828 358.758 97.26C358.758 97.692 358.758 98.112 358.758 98.52C358.758 98.928 358.758 99.296 358.758 99.624C358.758 99.952 358.758 100.216 358.758 100.416C358.758 100.688 358.802 100.904 358.89 101.064C358.978 101.224 359.146 101.34 359.394 101.412C359.65 101.476 360.018 101.508 360.498 101.508C360.962 101.508 361.402 101.496 361.818 101.472C362.234 101.44 362.642 101.4 363.042 101.352C363.442 101.296 363.838 101.228 364.23 101.148L364.194 102.18C363.842 102.228 363.47 102.272 363.078 102.312C362.686 102.352 362.27 102.38 361.83 102.396C361.398 102.42 360.93 102.432 360.426 102.432C359.874 102.432 359.422 102.396 359.07 102.324C358.718 102.252 358.45 102.144 358.266 102C358.082 101.848 357.954 101.664 357.882 101.448C357.81 101.224 357.774 100.964 357.774 100.668ZM364.746 95.304C364.706 95.368 364.658 95.448 364.602 95.544C364.546 95.632 364.494 95.712 364.446 95.784C364.31 96.032 364.15 96.308 363.966 96.612C363.782 96.908 363.582 97.216 363.366 97.536C363.158 97.856 362.934 98.164 362.694 98.46C362.462 98.756 362.226 99.028 361.986 99.276L361.158 98.784C361.462 98.504 361.754 98.188 362.034 97.836C362.314 97.484 362.562 97.14 362.778 96.804C363.002 96.46 363.174 96.168 363.294 95.928C363.246 95.936 363.082 95.968 362.802 96.024C362.53 96.08 362.178 96.152 361.746 96.24C361.322 96.328 360.85 96.424 360.33 96.528C359.818 96.624 359.294 96.728 358.758 96.84C358.222 96.952 357.706 97.056 357.21 97.152C356.722 97.248 356.286 97.34 355.902 97.428C355.518 97.508 355.222 97.568 355.014 97.608L354.834 96.6C355.05 96.576 355.35 96.532 355.734 96.468C356.118 96.404 356.55 96.328 357.03 96.24C357.518 96.152 358.026 96.056 358.554 95.952C359.09 95.848 359.614 95.744 360.126 95.64C360.646 95.536 361.13 95.44 361.578 95.352C362.026 95.256 362.41 95.176 362.73 95.112C363.05 95.048 363.274 95 363.402 94.968C363.53 94.944 363.65 94.916 363.762 94.884C363.874 94.844 363.966 94.8 364.038 94.752L364.746 95.304ZM368.994 93.204C369.21 93.348 369.458 93.528 369.738 93.744C370.018 93.952 370.302 94.176 370.59 94.416C370.886 94.648 371.162 94.876 371.418 95.1C371.674 95.324 371.886 95.52 372.054 95.688L371.298 96.444C371.146 96.292 370.95 96.104 370.71 95.88C370.47 95.656 370.206 95.424 369.918 95.184C369.63 94.936 369.346 94.704 369.066 94.488C368.786 94.264 368.534 94.08 368.31 93.936L368.994 93.204ZM367.962 101.244C368.666 101.14 369.306 100.996 369.882 100.812C370.466 100.628 370.998 100.42 371.478 100.188C371.958 99.956 372.386 99.724 372.762 99.492C373.378 99.108 373.946 98.668 374.466 98.172C374.986 97.668 375.442 97.148 375.834 96.612C376.226 96.076 376.538 95.564 376.77 95.076L377.346 96.096C377.074 96.592 376.738 97.096 376.338 97.608C375.938 98.12 375.486 98.612 374.982 99.084C374.478 99.556 373.922 99.984 373.314 100.368C372.914 100.616 372.474 100.86 371.994 101.1C371.522 101.34 371.002 101.56 370.434 101.76C369.874 101.952 369.262 102.108 368.598 102.228L367.962 101.244ZM382.314 100.944C382.314 100.832 382.314 100.608 382.314 100.272C382.314 99.928 382.314 99.524 382.314 99.06C382.314 98.588 382.314 98.096 382.314 97.584C382.314 97.064 382.314 96.56 382.314 96.072C382.314 95.584 382.314 95.152 382.314 94.776C382.314 94.4 382.314 94.128 382.314 93.96C382.314 93.792 382.306 93.588 382.29 93.348C382.274 93.108 382.25 92.896 382.218 92.712H383.394C383.378 92.888 383.358 93.096 383.334 93.336C383.318 93.576 383.31 93.784 383.31 93.96C383.31 94.272 383.31 94.648 383.31 95.088C383.31 95.52 383.31 95.984 383.31 96.48C383.31 96.968 383.31 97.456 383.31 97.944C383.318 98.424 383.322 98.876 383.322 99.3C383.322 99.716 383.322 100.072 383.322 100.368C383.322 100.656 383.322 100.848 383.322 100.944C383.322 101.072 383.322 101.22 383.322 101.388C383.33 101.556 383.342 101.728 383.358 101.904C383.374 102.072 383.386 102.224 383.394 102.36H382.23C382.262 102.168 382.282 101.94 382.29 101.676C382.306 101.412 382.314 101.168 382.314 100.944ZM383.106 95.856C383.498 95.976 383.93 96.12 384.402 96.288C384.882 96.448 385.37 96.62 385.866 96.804C386.362 96.988 386.83 97.176 387.27 97.368C387.718 97.552 388.106 97.728 388.434 97.896L388.026 98.916C387.682 98.724 387.294 98.536 386.862 98.352C386.43 98.16 385.986 97.972 385.53 97.788C385.082 97.604 384.646 97.44 384.222 97.296C383.806 97.144 383.434 97.02 383.106 96.924V95.856ZM392.946 93.624C392.93 93.72 392.914 93.84 392.898 93.984C392.89 94.128 392.878 94.272 392.862 94.416C392.854 94.56 392.85 94.684 392.85 94.788C392.842 95.036 392.838 95.32 392.838 95.64C392.846 95.952 392.854 96.28 392.862 96.624C392.878 96.96 392.902 97.296 392.934 97.632C392.998 98.296 393.106 98.88 393.258 99.384C393.41 99.88 393.594 100.268 393.81 100.548C394.034 100.828 394.286 100.968 394.566 100.968C394.718 100.968 394.866 100.9 395.01 100.764C395.154 100.62 395.29 100.432 395.418 100.2C395.554 99.96 395.674 99.696 395.778 99.408C395.89 99.112 395.982 98.816 396.054 98.52L396.81 99.372C396.57 100.052 396.326 100.592 396.078 100.992C395.838 101.384 395.59 101.668 395.334 101.844C395.086 102.02 394.826 102.108 394.554 102.108C394.178 102.108 393.814 101.972 393.462 101.7C393.11 101.42 392.806 100.972 392.55 100.356C392.294 99.732 392.11 98.904 391.998 97.872C391.958 97.52 391.926 97.14 391.902 96.732C391.886 96.324 391.874 95.936 391.866 95.568C391.866 95.2 391.866 94.9 391.866 94.668C391.866 94.532 391.862 94.356 391.854 94.14C391.846 93.924 391.822 93.744 391.782 93.6L392.946 93.624ZM399.198 93.96C399.414 94.232 399.618 94.552 399.81 94.92C400.01 95.28 400.19 95.668 400.35 96.084C400.518 96.492 400.666 96.916 400.794 97.356C400.93 97.796 401.038 98.236 401.118 98.676C401.206 99.108 401.27 99.524 401.31 99.924L400.35 100.32C400.302 99.776 400.218 99.224 400.098 98.664C399.978 98.096 399.83 97.548 399.654 97.02C399.478 96.484 399.274 95.98 399.042 95.508C398.81 95.036 398.55 94.628 398.262 94.284L399.198 93.96ZM407.586 92.556C407.546 92.692 407.506 92.856 407.466 93.048C407.426 93.24 407.394 93.396 407.37 93.516C407.314 93.804 407.246 94.14 407.166 94.524C407.094 94.9 407.01 95.296 406.914 95.712C406.826 96.128 406.726 96.536 406.614 96.936C406.51 97.36 406.382 97.824 406.23 98.328C406.078 98.824 405.918 99.324 405.75 99.828C405.582 100.332 405.41 100.808 405.234 101.256C405.058 101.704 404.894 102.096 404.742 102.432L403.686 102.072C403.87 101.76 404.054 101.388 404.238 100.956C404.43 100.516 404.614 100.048 404.79 99.552C404.974 99.056 405.142 98.564 405.294 98.076C405.454 97.58 405.59 97.124 405.702 96.708C405.782 96.428 405.858 96.132 405.93 95.82C406.002 95.508 406.07 95.204 406.134 94.908C406.198 94.604 406.25 94.328 406.29 94.08C406.338 93.824 406.374 93.616 406.398 93.456C406.422 93.288 406.438 93.112 406.446 92.928C406.454 92.744 406.45 92.588 406.434 92.46L407.586 92.556ZM404.922 94.56C405.37 94.56 405.85 94.54 406.362 94.5C406.882 94.452 407.41 94.384 407.946 94.296C408.482 94.208 408.998 94.1 409.494 93.972V94.92C408.998 95.032 408.478 95.128 407.934 95.208C407.39 95.288 406.854 95.352 406.326 95.4C405.806 95.44 405.334 95.46 404.91 95.46C404.646 95.46 404.402 95.456 404.178 95.448C403.954 95.432 403.734 95.42 403.518 95.412L403.482 94.476C403.77 94.508 404.026 94.532 404.25 94.548C404.482 94.556 404.706 94.56 404.922 94.56ZM408.714 96.216C409.034 96.184 409.382 96.16 409.758 96.144C410.142 96.12 410.526 96.108 410.91 96.108C411.262 96.108 411.614 96.116 411.966 96.132C412.326 96.148 412.666 96.176 412.986 96.216L412.962 97.128C412.658 97.088 412.334 97.056 411.99 97.032C411.646 97 411.298 96.984 410.946 96.984C410.57 96.984 410.194 96.996 409.818 97.02C409.45 97.036 409.082 97.064 408.714 97.104V96.216ZM408.966 99.132C408.918 99.324 408.878 99.512 408.846 99.696C408.814 99.88 408.798 100.052 408.798 100.212C408.798 100.356 408.822 100.496 408.87 100.632C408.926 100.76 409.026 100.876 409.17 100.98C409.314 101.084 409.518 101.168 409.782 101.232C410.054 101.296 410.402 101.328 410.826 101.328C411.218 101.328 411.614 101.308 412.014 101.268C412.414 101.228 412.798 101.168 413.166 101.088L413.13 102.06C412.81 102.108 412.454 102.148 412.062 102.18C411.67 102.212 411.254 102.228 410.814 102.228C409.87 102.228 409.146 102.084 408.642 101.796C408.138 101.5 407.886 101.056 407.886 100.464C407.886 100.232 407.902 100 407.934 99.768C407.974 99.536 408.018 99.296 408.066 99.048L408.966 99.132ZM418.35 92.652C418.318 92.852 418.294 93.056 418.278 93.264C418.262 93.464 418.25 93.664 418.242 93.864C418.226 94.2 418.21 94.616 418.194 95.112C418.178 95.608 418.162 96.136 418.146 96.696C418.13 97.248 418.118 97.8 418.11 98.352C418.102 98.904 418.098 99.4 418.098 99.84C418.098 100.28 418.182 100.632 418.35 100.896C418.518 101.16 418.75 101.348 419.046 101.46C419.342 101.572 419.682 101.628 420.066 101.628C420.61 101.628 421.102 101.56 421.542 101.424C421.982 101.28 422.374 101.092 422.718 100.86C423.062 100.62 423.366 100.352 423.63 100.056C423.902 99.76 424.146 99.456 424.362 99.144L425.046 99.96C424.838 100.248 424.582 100.548 424.278 100.86C423.982 101.164 423.63 101.448 423.222 101.712C422.814 101.976 422.342 102.192 421.806 102.36C421.278 102.528 420.686 102.612 420.03 102.612C419.462 102.612 418.958 102.524 418.518 102.348C418.078 102.172 417.734 101.888 417.486 101.496C417.238 101.104 417.114 100.584 417.114 99.936C417.114 99.576 417.118 99.18 417.126 98.748C417.134 98.308 417.146 97.856 417.162 97.392C417.178 96.928 417.19 96.476 417.198 96.036C417.206 95.588 417.214 95.176 417.222 94.8C417.23 94.424 417.234 94.112 417.234 93.864C417.234 93.64 417.226 93.424 417.21 93.216C417.194 93.008 417.17 92.816 417.138 92.64L418.35 92.652ZM433.146 92.472C433.13 92.576 433.114 92.692 433.098 92.82C433.09 92.948 433.082 93.1 433.074 93.276C433.074 93.396 433.07 93.576 433.062 93.816C433.062 94.056 433.062 94.328 433.062 94.632C433.062 94.928 433.062 95.228 433.062 95.532C433.062 95.836 433.062 96.116 433.062 96.372C433.062 96.772 433.07 97.192 433.086 97.632C433.102 98.072 433.122 98.5 433.146 98.916C433.17 99.332 433.19 99.712 433.206 100.056C433.222 100.4 433.23 100.672 433.23 100.872C433.23 101.152 433.162 101.42 433.026 101.676C432.898 101.932 432.678 102.14 432.366 102.3C432.062 102.468 431.646 102.552 431.118 102.552C430.254 102.552 429.594 102.4 429.138 102.096C428.682 101.8 428.454 101.364 428.454 100.788C428.454 100.42 428.562 100.1 428.778 99.828C429.002 99.556 429.322 99.344 429.738 99.192C430.154 99.032 430.65 98.952 431.226 98.952C431.858 98.952 432.45 99.028 433.002 99.18C433.562 99.324 434.074 99.508 434.538 99.732C435.002 99.956 435.414 100.192 435.774 100.44C436.134 100.68 436.43 100.896 436.662 101.088L436.11 101.94C435.838 101.684 435.522 101.428 435.162 101.172C434.81 100.916 434.422 100.68 433.998 100.464C433.582 100.248 433.13 100.076 432.642 99.948C432.162 99.812 431.65 99.744 431.106 99.744C430.53 99.744 430.09 99.84 429.786 100.032C429.49 100.224 429.342 100.46 429.342 100.74C429.342 100.916 429.398 101.08 429.51 101.232C429.622 101.376 429.802 101.492 430.05 101.58C430.298 101.668 430.618 101.712 431.01 101.712C431.242 101.712 431.454 101.684 431.646 101.628C431.838 101.564 431.99 101.456 432.102 101.304C432.222 101.152 432.282 100.94 432.282 100.668C432.282 100.436 432.274 100.136 432.258 99.768C432.25 99.392 432.238 98.996 432.222 98.58C432.206 98.156 432.19 97.748 432.174 97.356C432.166 96.964 432.162 96.636 432.162 96.372C432.162 96.1 432.162 95.824 432.162 95.544C432.162 95.256 432.162 94.972 432.162 94.692C432.162 94.412 432.162 94.144 432.162 93.888C432.17 93.632 432.174 93.4 432.174 93.192C432.174 93.096 432.17 92.972 432.162 92.82C432.154 92.668 432.142 92.552 432.126 92.472H433.146ZM428.55 93.78C428.75 93.812 428.982 93.844 429.246 93.876C429.51 93.908 429.786 93.94 430.074 93.972C430.37 93.996 430.65 94.016 430.914 94.032C431.186 94.04 431.422 94.044 431.622 94.044C432.382 94.044 433.158 94.016 433.95 93.96C434.75 93.904 435.538 93.812 436.314 93.684L436.302 94.56C435.862 94.608 435.382 94.656 434.862 94.704C434.342 94.752 433.806 94.792 433.254 94.824C432.71 94.856 432.17 94.872 431.634 94.872C431.354 94.872 431.022 94.86 430.638 94.836C430.254 94.812 429.874 94.784 429.498 94.752C429.13 94.72 428.818 94.692 428.562 94.668L428.55 93.78ZM428.49 96.324C428.706 96.356 428.946 96.388 429.21 96.42C429.474 96.452 429.746 96.476 430.026 96.492C430.306 96.508 430.574 96.524 430.83 96.54C431.086 96.548 431.314 96.552 431.514 96.552C432.098 96.552 432.662 96.54 433.206 96.516C433.758 96.484 434.298 96.444 434.826 96.396C435.362 96.34 435.89 96.272 436.41 96.192L436.398 97.092C435.998 97.148 435.598 97.196 435.198 97.236C434.806 97.268 434.41 97.296 434.01 97.32C433.618 97.344 433.214 97.364 432.798 97.38C432.39 97.388 431.958 97.392 431.502 97.392C431.23 97.392 430.914 97.384 430.554 97.368C430.202 97.352 429.842 97.332 429.474 97.308C429.114 97.284 428.79 97.256 428.502 97.224L428.49 96.324ZM445.794 92.496C445.794 92.536 445.786 92.608 445.77 92.712C445.762 92.816 445.754 92.92 445.746 93.024C445.746 93.12 445.742 93.196 445.734 93.252C445.726 93.404 445.722 93.612 445.722 93.876C445.722 94.14 445.722 94.428 445.722 94.74C445.722 95.052 445.722 95.368 445.722 95.688C445.73 96.008 445.734 96.308 445.734 96.588C445.742 96.868 445.746 97.104 445.746 97.296L444.822 96.84C444.822 96.728 444.822 96.56 444.822 96.336C444.822 96.104 444.822 95.84 444.822 95.544C444.822 95.24 444.818 94.94 444.81 94.644C444.81 94.348 444.806 94.076 444.798 93.828C444.79 93.58 444.782 93.388 444.774 93.252C444.766 93.092 444.754 92.94 444.738 92.796C444.722 92.644 444.71 92.544 444.702 92.496H445.794ZM439.422 94.164C439.75 94.164 440.122 94.16 440.538 94.152C440.954 94.136 441.394 94.12 441.858 94.104C442.33 94.088 442.806 94.076 443.286 94.068C443.766 94.06 444.226 94.052 444.666 94.044C445.114 94.036 445.526 94.032 445.902 94.032C446.262 94.032 446.622 94.032 446.982 94.032C447.342 94.032 447.678 94.032 447.99 94.032C448.31 94.032 448.59 94.036 448.83 94.044C449.078 94.044 449.274 94.044 449.418 94.044L449.406 94.932C449.07 94.916 448.618 94.904 448.05 94.896C447.49 94.88 446.77 94.872 445.89 94.872C445.37 94.872 444.826 94.88 444.258 94.896C443.698 94.904 443.134 94.916 442.566 94.932C441.998 94.948 441.446 94.972 440.91 95.004C440.382 95.028 439.894 95.056 439.446 95.088L439.422 94.164ZM445.722 97.656C445.722 98.184 445.642 98.628 445.482 98.988C445.33 99.348 445.114 99.616 444.834 99.792C444.562 99.968 444.242 100.056 443.874 100.056C443.626 100.056 443.382 100.016 443.142 99.936C442.91 99.848 442.698 99.72 442.506 99.552C442.322 99.376 442.174 99.164 442.062 98.916C441.958 98.66 441.906 98.372 441.906 98.052C441.906 97.652 442.002 97.296 442.194 96.984C442.386 96.672 442.642 96.424 442.962 96.24C443.29 96.056 443.642 95.964 444.018 95.964C444.49 95.964 444.878 96.072 445.182 96.288C445.494 96.496 445.73 96.784 445.89 97.152C446.05 97.512 446.13 97.924 446.13 98.388C446.13 98.788 446.07 99.196 445.95 99.612C445.838 100.028 445.646 100.428 445.374 100.812C445.11 101.196 444.746 101.548 444.282 101.868C443.826 102.18 443.246 102.44 442.542 102.648L441.738 101.856C442.282 101.728 442.77 101.564 443.202 101.364C443.634 101.164 443.998 100.92 444.294 100.632C444.59 100.344 444.814 100.008 444.966 99.624C445.126 99.24 445.206 98.8 445.206 98.304C445.206 97.76 445.09 97.368 444.858 97.128C444.626 96.888 444.346 96.768 444.018 96.768C443.81 96.768 443.614 96.82 443.43 96.924C443.246 97.02 443.094 97.164 442.974 97.356C442.862 97.548 442.806 97.776 442.806 98.04C442.806 98.416 442.926 98.708 443.166 98.916C443.414 99.124 443.702 99.228 444.03 99.228C444.278 99.228 444.49 99.16 444.666 99.024C444.842 98.88 444.966 98.668 445.038 98.388C445.118 98.1 445.126 97.744 445.062 97.32L445.722 97.656Z" fill="#555555"/>
<rect x="35" y="85" width="102" height="24" rx="4" fill="#DD0C1F"/>
<path d="M49.446 100.032L48.97 100.718C49.838 100.9 50.72 101.11 51.574 101.334C52.092 100.984 52.526 100.55 52.862 100.032H49.446ZM47.08 95.188V96.49H48.55V95.188H47.08ZM50.118 93.074V93.872H51.7V93.074H50.118ZM54.948 95.188H53.268V96.49H54.948V95.188ZM50.118 96.49H51.7V95.188H50.118V96.49ZM57.398 100.032H54.71C54.36 100.746 53.926 101.334 53.408 101.824C54.766 102.202 55.984 102.58 56.936 102.916L55.914 104.274C54.85 103.84 53.436 103.35 51.854 102.888C50.286 103.658 48.214 104.022 45.498 104.232C45.386 103.756 45.12 103.168 44.868 102.804C46.716 102.734 48.228 102.566 49.474 102.244C49.026 102.132 48.578 102.02 48.116 101.922L47.962 102.132L46.352 101.628C46.702 101.18 47.108 100.634 47.528 100.032H44.616V98.688H48.424C48.62 98.38 48.802 98.086 48.984 97.792H45.512V93.872H48.55V93.074H44.868V91.632H57.062V93.074H53.268V93.872H56.614V97.792H50.888C50.72 98.086 50.524 98.38 50.328 98.688H57.398V100.032ZM65.938 100.802H69.648C70.152 100.802 70.6 100.746 70.95 100.69V102.72C70.558 102.664 69.97 102.65 69.648 102.65H60.422C60.002 102.65 59.512 102.664 59.05 102.72V100.69C59.484 100.774 59.988 100.802 60.422 100.802H63.978V95.09H61.276C60.898 95.09 60.296 95.118 59.946 95.146V93.228C60.31 93.284 60.884 93.312 61.276 93.312H68.892C69.312 93.312 69.802 93.27 70.208 93.228V95.146C69.788 95.118 69.298 95.09 68.892 95.09H65.938V100.802ZM75.374 92.36C76.354 93.018 78.174 94.474 78.986 95.314L77.558 96.784C76.83 96 75.08 94.474 74.058 93.76L75.374 92.36ZM73.624 101.684C75.808 101.376 77.628 100.662 78.986 99.85C81.366 98.436 83.2 96.294 84.082 94.404L85.174 96.378C84.11 98.268 82.248 100.2 79.994 101.558C78.58 102.412 76.774 103.196 74.8 103.532L73.624 101.684ZM98.166 97.848L97.368 99.78C95.926 99.024 93.826 98.212 92.314 97.694V101.656C92.314 102.062 92.384 103.042 92.44 103.602H90.256C90.34 103.056 90.396 102.216 90.396 101.656V93.62C90.396 93.116 90.354 92.416 90.256 91.926H92.44C92.384 92.416 92.314 93.032 92.314 93.62V95.678C94.19 96.224 96.878 97.218 98.166 97.848ZM102.73 92.262H104.788C104.76 92.57 104.746 92.878 104.746 93.326V98.058C104.746 98.408 104.76 98.954 104.788 99.276H102.716C102.73 99.01 102.786 98.464 102.786 98.044V93.326C102.786 93.06 102.772 92.57 102.73 92.262ZM109.17 92.136H111.242C111.214 92.528 111.186 92.976 111.186 93.536V96.308C111.186 99.318 110.598 100.606 109.562 101.754C108.638 102.776 107.182 103.462 106.16 103.784L104.69 102.244C106.09 101.922 107.266 101.39 108.12 100.48C109.072 99.43 109.254 98.38 109.254 96.196V93.536C109.254 92.976 109.226 92.528 109.17 92.136ZM115.288 98.716V96.518C115.792 96.56 116.814 96.602 117.542 96.602H125.06C125.704 96.602 126.334 96.546 126.698 96.518V98.716C126.362 98.702 125.648 98.646 125.06 98.646H117.542C116.744 98.646 115.806 98.674 115.288 98.716Z" fill="white"/>
<path d="M42.232 41.168H37.4C37.944 42.256 38.36 43.728 38.488 44.688L36.888 45.136H43.16L41.048 44.688C41.464 43.728 41.976 42.256 42.232 41.168ZM41.816 53.936V54.192C42.968 54.992 45.624 57.104 46.36 57.68L44.152 60.4C43.64 59.76 42.744 58.8 41.816 57.904V64.72H38.136V58.288C36.888 60.08 35.448 61.68 34.072 62.8C33.496 61.968 32.408 60.72 31.608 60.112C33.688 58.736 35.896 56.336 37.368 53.936H32.504V50.736H38.136V48.272H32.408V45.136H35.352C35.224 44.08 34.84 42.704 34.392 41.616L36.344 41.168H32.76V38.064H38.136V35.152H41.816V38.064H47.128V41.168H43.832L45.688 41.52C45.112 42.896 44.6 44.176 44.152 45.136H47.384V48.272H41.816V50.736H47.096V53.936H41.816ZM61.912 45.424V48.944H58.872V64.592H55.192V48.944H51.928C51.896 53.712 51.224 60.464 47 64.848C46.52 64.016 45.144 62.704 44.28 62.256C47.96 58.352 48.344 52.912 48.344 48.496V37.424L50.552 38.032C53.592 37.296 56.76 36.272 58.712 35.216L61.752 38C58.936 39.248 55.288 40.24 51.928 40.944V45.424H61.912ZM77.464 57.2L74.904 59.984C74.2 58.768 72.92 56.976 71.704 55.376C70.904 58.8 69.368 62.032 66.488 64.368C65.944 63.568 64.76 62.288 63.896 61.648C67.416 59.056 68.536 54.672 68.856 50.64H64.344V47.184H68.984V46.704V43.152H64.824V39.792H68.984V35.216H72.536V39.792H76.536V43.152H72.536V46.704V47.184H77.048V50.64H72.408L72.344 51.408C73.688 52.784 76.76 56.304 77.464 57.2ZM81.528 49.136V51.024H88.536V49.136H81.528ZM81.528 44.272V46.16H88.536V44.272H81.528ZM81.528 39.376V41.264H88.536V39.376H81.528ZM89.336 60.848H90.424C90.936 60.848 91.064 60.432 91.128 57.072C91.832 57.616 93.304 58.192 94.264 58.448C93.944 62.992 93.08 64.144 90.808 64.144H88.696C85.88 64.144 85.272 63.088 85.272 59.952V54.384H83.64C83.096 59.088 81.656 62.672 76.024 64.816C75.64 63.92 74.68 62.608 73.976 61.968C78.648 60.4 79.64 57.776 80.056 54.384H78.008V36.016H92.216V54.384H88.792V59.888C88.792 60.752 88.856 60.848 89.336 60.848ZM103.96 52.624C103.64 53.776 103.416 54.8 103.416 55.856C103.416 57.936 105.368 59.376 109.976 59.376C114.296 59.376 118.392 58.896 121.208 58.128L121.24 62.608C118.456 63.28 114.616 63.728 110.136 63.728C102.808 63.728 99.128 61.264 99.128 56.848C99.128 54.992 99.512 53.456 99.736 52.24L103.96 52.624ZM120.088 35.76C120.888 36.912 122.04 38.96 122.648 40.144L120.056 41.264C119.832 40.784 119.544 40.24 119.256 39.696V43.28C117.016 43.44 113.048 43.664 110.008 43.664C106.648 43.664 103.864 43.504 101.272 43.312V39.056C103.64 39.344 106.616 39.472 109.976 39.472C113.016 39.472 116.472 39.28 118.936 39.056C118.488 38.224 118.008 37.424 117.56 36.784L120.088 35.76ZM123.896 34.32C124.728 35.504 125.912 37.552 126.488 38.672L123.928 39.76C123.256 38.416 122.232 36.56 121.336 35.344L123.896 34.32ZM134.392 36.688H145.464C145.464 42.736 146.328 54.416 158.104 61.36C157.272 62.032 155.704 63.696 155.032 64.688C148.408 60.688 145.016 54.64 143.256 48.912C140.856 56.08 137.016 61.392 131.448 64.72C130.744 63.92 128.952 62.352 127.96 61.616C134.616 58.256 138.424 52.08 140.184 43.664L142.136 44.016C141.912 42.8 141.784 41.648 141.688 40.56H134.392V36.688ZM169.112 44.496H181.112C178.648 42.64 176.44 40.56 174.968 38.576C173.592 40.528 171.544 42.608 169.112 44.496ZM167.544 47.984V45.648C165.848 46.864 163.992 47.952 162.136 48.848C161.688 47.92 160.696 46.48 159.896 45.648C165.336 43.248 170.424 38.704 172.824 34.928H176.792C180.184 39.632 185.272 43.28 190.328 45.072C189.368 46.064 188.536 47.44 187.864 48.56C186.104 47.728 184.248 46.672 182.488 45.456V47.984H167.544ZM161.88 54.16V50.64H188.344V54.16H174.008C173.08 56.048 172.024 58.032 171.064 59.824C174.136 59.728 177.432 59.6 180.696 59.472C179.704 58.32 178.616 57.168 177.56 56.208L180.92 54.448C183.768 56.944 186.744 60.272 188.248 62.672L184.696 64.816C184.376 64.208 183.928 63.536 183.416 62.832C175.896 63.248 167.992 63.568 162.552 63.824L162.04 60.112L166.872 59.952C167.736 58.16 168.632 56.048 169.304 54.16H161.88ZM207.224 39.28C206.968 38.544 206.616 37.392 206.2 36.336L210.52 35.824C210.84 37.52 211.32 39.248 211.864 40.848C214.168 40.496 216.408 39.984 218.424 39.376L218.936 43.408C217.304 43.888 215.256 44.272 213.24 44.56C214.168 46.64 215.288 48.624 216.088 49.776C216.632 50.576 217.24 51.28 217.816 51.92L215.832 54.8C214.04 54.448 210.008 54.032 207.32 53.808L207.64 50.416C209.208 50.544 211.32 50.736 212.312 50.8C211.352 49.264 210.2 47.152 209.304 45.008C205.496 45.296 201.112 45.328 195.64 44.88L195.576 40.784C200.376 41.36 204.472 41.456 207.864 41.232C207.608 40.496 207.416 39.824 207.224 39.28ZM201.976 51.696C200.952 53.2 200.408 54.608 200.408 56.016C200.408 58.704 202.808 59.856 207.192 59.856C210.68 59.856 213.496 59.536 215.768 59.088L215.544 63.12C213.72 63.472 210.84 63.888 206.936 63.888C200.408 63.856 196.28 61.328 196.28 56.72C196.28 54.768 196.888 52.944 197.976 50.768L201.976 51.696ZM232.088 58.384C232.088 59.6 233.24 60.336 235.448 60.336C237.144 60.336 238.264 59.856 238.264 58C238.264 57.648 238.264 57.2 238.232 56.624C237.368 56.496 236.504 56.4 235.608 56.4C233.336 56.4 232.088 57.296 232.088 58.384ZM242.104 36.112C242.008 36.752 241.944 37.552 241.912 38.384C241.88 38.704 241.88 39.184 241.88 39.696C244.504 39.568 247.16 39.312 249.976 38.832L249.944 42.512C247.832 42.768 244.92 43.056 241.816 43.216C241.816 44.336 241.816 45.52 241.816 46.512C245.048 46.352 247.768 46.096 250.36 45.744L250.328 49.52C247.448 49.84 244.952 50.064 241.88 50.16C241.944 51.376 242.008 52.688 242.104 53.968C246.136 55.12 249.208 57.264 251.064 58.8L248.76 62.384C247.032 60.784 244.856 59.088 242.296 57.936C242.328 58.384 242.328 58.768 242.328 59.12C242.328 61.84 240.248 63.952 236.024 63.952C230.904 63.952 228.216 62 228.216 58.608C228.216 55.376 231.192 53.104 236.12 53.104C236.792 53.104 237.464 53.136 238.104 53.2C238.04 52.208 238.008 51.184 237.976 50.224C237.432 50.224 236.888 50.224 236.312 50.224C234.456 50.224 230.808 50.064 228.696 49.808L228.664 46.032C230.744 46.416 234.68 46.64 236.376 46.64C236.888 46.64 237.4 46.64 237.912 46.64C237.912 45.584 237.912 44.432 237.944 43.344C237.528 43.344 237.144 43.344 236.76 43.344C234.744 43.344 231.032 43.056 228.92 42.768L228.824 39.12C231.128 39.504 234.776 39.824 236.728 39.824C237.144 39.824 237.56 39.824 237.976 39.824C237.976 39.216 237.976 38.704 237.976 38.32C237.976 37.712 237.912 36.72 237.784 36.112H242.104ZM265.528 36.112L268.12 37.616C267.224 40.4 266.136 43.92 265.144 46.416C267.224 48.88 267.608 51.088 267.608 52.944C267.64 55.056 267.16 56.4 266.136 57.104C265.624 57.52 264.952 57.712 264.248 57.84C263.608 57.936 262.84 57.904 262.04 57.904C262.008 56.944 261.72 55.472 261.176 54.512C261.784 54.544 262.264 54.544 262.68 54.544C263.032 54.544 263.32 54.448 263.608 54.256C263.992 53.968 264.184 53.36 264.184 52.464C264.184 50.96 263.704 48.976 261.816 46.832C262.488 44.784 263.224 41.904 263.8 39.664H260.984V64.784H257.432V36.272H264.984L265.528 36.112ZM272.696 45.232V47.92H280.12V45.232H272.696ZM280.12 39.6H272.696V42.128H280.12V39.6ZM282.424 51.408L285.4 53.52C284.024 54.832 282.456 56.208 281.08 57.264C282.36 59.088 284.024 60.528 286.104 61.456C285.272 62.224 284.152 63.664 283.64 64.688C278.936 62.192 276.44 57.424 275 51.184H272.696V59.44C274.2 59.184 275.768 58.896 277.304 58.608L277.592 61.936C273.912 62.8 269.976 63.6 266.968 64.272L265.72 60.592C266.68 60.464 267.8 60.272 269.048 60.08V36.304H283.896V51.184H278.328C278.648 52.368 279.064 53.52 279.544 54.576C280.6 53.552 281.688 52.4 282.424 51.408ZM293.08 41.744V46.128H289.336V38.128H300.952V34.928H304.984V38.128H316.696V46.128H312.76V41.744H293.08ZM304.952 55.696V60.464C306.104 60.592 307.32 60.656 308.6 60.656C310.328 60.656 315.608 60.656 317.752 60.56C317.208 61.488 316.6 63.312 316.408 64.432H308.408C302.52 64.432 298.136 63.472 295.192 58.928C294.168 61.36 292.76 63.408 290.936 64.976C290.296 64.304 288.696 62.96 287.8 62.384C291.256 59.824 292.824 55.408 293.4 49.936L297.368 50.32C297.176 51.76 296.952 53.104 296.664 54.384C297.624 56.944 299.128 58.48 301.016 59.408V48.112H294.2V44.496H311.8V48.112H304.952V52.112H313.752V55.696H304.952ZM333.368 53.776L332.504 42.832L332.344 38.064H337.656L337.496 42.832L336.632 53.776H333.368ZM335 62.288C333.368 62.288 332.184 61.136 332.184 59.472C332.184 57.776 333.4 56.624 335 56.624C336.6 56.624 337.816 57.776 337.816 59.472C337.816 61.136 336.6 62.288 335 62.288Z" fill="#555555"/>
<path d="M627.245 88H613.205L633.869 47.392H609.749V37.024H646.757V46.672L627.245 88ZM655.72 96.928H646L651.4 76.48H662.704L655.72 96.928ZM709.346 62.368C709.346 65.968 708.986 69.4 708.266 72.664C707.546 75.928 706.394 78.808 704.81 81.304C703.226 83.752 701.162 85.72 698.618 87.208C696.122 88.648 693.074 89.368 689.474 89.368C685.874 89.368 682.802 88.648 680.258 87.208C677.714 85.72 675.626 83.752 673.994 81.304C672.41 78.808 671.258 75.928 670.538 72.664C669.818 69.4 669.458 65.968 669.458 62.368C669.458 58.768 669.818 55.36 670.538 52.144C671.258 48.88 672.41 46.048 673.994 43.648C675.626 41.2 677.714 39.256 680.258 37.816C682.802 36.376 685.874 35.656 689.474 35.656C693.074 35.656 696.122 36.376 698.618 37.816C701.162 39.256 703.226 41.2 704.81 43.648C706.394 46.048 707.546 48.88 708.266 52.144C708.986 55.36 709.346 58.768 709.346 62.368ZM696.962 62.368C696.962 60.784 696.866 59.032 696.674 57.112C696.482 55.192 696.122 53.416 695.594 51.784C695.066 50.104 694.298 48.712 693.29 47.608C692.33 46.456 691.058 45.88 689.474 45.88C687.89 45.88 686.594 46.456 685.586 47.608C684.578 48.712 683.786 50.104 683.21 51.784C682.682 53.416 682.322 55.192 682.13 57.112C681.938 59.032 681.842 60.784 681.842 62.368C681.842 64 681.938 65.8 682.13 67.768C682.322 69.688 682.682 71.488 683.21 73.168C683.786 74.8 684.578 76.192 685.586 77.344C686.594 78.448 687.89 79 689.474 79C691.058 79 692.33 78.448 693.29 77.344C694.298 76.192 695.066 74.8 695.594 73.168C696.122 71.488 696.482 69.688 696.674 67.768C696.866 65.8 696.962 64 696.962 62.368ZM755.893 62.368C755.893 65.968 755.533 69.4 754.813 72.664C754.093 75.928 752.941 78.808 751.357 81.304C749.773 83.752 747.709 85.72 745.165 87.208C742.669 88.648 739.621 89.368 736.021 89.368C732.421 89.368 729.349 88.648 726.805 87.208C724.261 85.72 722.173 83.752 720.541 81.304C718.957 78.808 717.805 75.928 717.085 72.664C716.365 69.4 716.005 65.968 716.005 62.368C716.005 58.768 716.365 55.36 717.085 52.144C717.805 48.88 718.957 46.048 720.541 43.648C722.173 41.2 724.261 39.256 726.805 37.816C729.349 36.376 732.421 35.656 736.021 35.656C739.621 35.656 742.669 36.376 745.165 37.816C747.709 39.256 749.773 41.2 751.357 43.648C752.941 46.048 754.093 48.88 754.813 52.144C755.533 55.36 755.893 58.768 755.893 62.368ZM743.509 62.368C743.509 60.784 743.413 59.032 743.221 57.112C743.029 55.192 742.669 53.416 742.141 51.784C741.613 50.104 740.845 48.712 739.837 47.608C738.877 46.456 737.605 45.88 736.021 45.88C734.437 45.88 733.141 46.456 732.133 47.608C731.125 48.712 730.333 50.104 729.757 51.784C729.229 53.416 728.869 55.192 728.677 57.112C728.485 59.032 728.389 60.784 728.389 62.368C728.389 64 728.485 65.8 728.677 67.768C728.869 69.688 729.229 71.488 729.757 73.168C730.333 74.8 731.125 76.192 732.133 77.344C733.141 78.448 734.437 79 736.021 79C737.605 79 738.877 78.448 739.837 77.344C740.845 76.192 741.613 74.8 742.141 73.168C742.669 71.488 743.029 69.688 743.221 67.768C743.413 65.8 743.509 64 743.509 62.368ZM802.44 62.368C802.44 65.968 802.08 69.4 801.36 72.664C800.64 75.928 799.488 78.808 797.904 81.304C796.32 83.752 794.256 85.72 791.712 87.208C789.216 88.648 786.168 89.368 782.568 89.368C778.968 89.368 775.896 88.648 773.352 87.208C770.808 85.72 768.72 83.752 767.088 81.304C765.504 78.808 764.352 75.928 763.632 72.664C762.912 69.4 762.552 65.968 762.552 62.368C762.552 58.768 762.912 55.36 763.632 52.144C764.352 48.88 765.504 46.048 767.088 43.648C768.72 41.2 770.808 39.256 773.352 37.816C775.896 36.376 778.968 35.656 782.568 35.656C786.168 35.656 789.216 36.376 791.712 37.816C794.256 39.256 796.32 41.2 797.904 43.648C799.488 46.048 800.64 48.88 801.36 52.144C802.08 55.36 802.44 58.768 802.44 62.368ZM790.056 62.368C790.056 60.784 789.96 59.032 789.768 57.112C789.576 55.192 789.216 53.416 788.688 51.784C788.16 50.104 787.392 48.712 786.384 47.608C785.424 46.456 784.152 45.88 782.568 45.88C780.984 45.88 779.688 46.456 778.68 47.608C777.672 48.712 776.88 50.104 776.304 51.784C775.776 53.416 775.416 55.192 775.224 57.112C775.032 59.032 774.936 60.784 774.936 62.368C774.936 64 775.032 65.8 775.224 67.768C775.416 69.688 775.776 71.488 776.304 73.168C776.88 74.8 777.672 76.192 778.68 77.344C779.688 78.448 780.984 79 782.568 79C784.152 79 785.424 78.448 786.384 77.344C787.392 76.192 788.16 74.8 788.688 73.168C789.216 71.488 789.576 69.688 789.768 67.768C789.96 65.8 790.056 64 790.056 62.368Z" fill="#DD0C1F"/>
<path d="M588.04 40.248V39.264H577.864V40.248H588.04ZM588.04 42.984V41.976H577.864V42.984H588.04ZM590.896 37.44V44.808H575.128V37.44H590.896ZM589.528 51.024H586.288C586.696 51.888 587.248 52.68 587.896 53.376C588.544 52.68 589.096 51.888 589.528 51.024ZM576.808 53.88V55.056C577.816 54.984 578.872 54.912 579.928 54.816V53.88H576.808ZM576.808 50.904V51.912H579.928V50.904H576.808ZM579.928 47.952H576.808V48.912H579.928V47.952ZM591.208 48.744L592.96 49.416C592.312 51.672 591.28 53.544 589.936 55.056C591.136 55.848 592.576 56.448 594.16 56.832C593.608 57.36 592.864 58.392 592.48 59.064C590.776 58.56 589.288 57.816 588.016 56.832C586.792 57.768 585.424 58.512 583.936 59.064C583.672 58.512 583.144 57.72 582.664 57.144V59.088H579.928V57.144C577.168 57.408 574.432 57.648 572.32 57.84L572.104 55.392C572.728 55.344 573.448 55.32 574.192 55.248V47.952H572.32V45.696H593.656V47.952H582.664V56.736C583.888 56.328 585.064 55.752 586.072 55.008C585.208 53.976 584.464 52.776 583.888 51.456L585.472 51.024H583.264V48.84H590.728L591.208 48.744ZM593.656 79.056H585.208C586.792 83.736 589.696 87.504 594.184 89.328C593.464 89.928 592.528 91.2 592.072 92.016C587.728 89.976 584.944 86.472 583.072 81.84C581.776 85.848 579.184 89.592 574.096 92.04C573.64 91.248 572.8 90.216 571.96 89.616C577.456 87.168 579.736 83.184 580.672 79.056H572.416V76.104H581.152C581.392 73.848 581.368 71.664 581.392 69.696H584.512C584.488 71.664 584.464 73.872 584.224 76.104H593.656V79.056Z" fill="#555555"/>
<path d="M832.68 36.98C832.6 37.6 832.56 38.38 832.56 39C832.56 39.44 832.58 39.92 832.58 40.44H835.08C835.74 40.44 836.68 40.36 837.16 40.28V42.94C836.52 42.92 835.76 42.88 835.22 42.88H832.64C832.7 45.8 832.78 49.14 832.82 51.84C832.84 53.12 832.1 53.86 830.58 53.86C829.36 53.86 828.24 53.82 827.1 53.74L826.88 51.14C827.78 51.3 828.86 51.38 829.54 51.38C830.04 51.38 830.24 51.12 830.24 50.54C830.24 49.2 830.24 47.2 830.2 45.14C828.44 47.44 825.2 50.22 822.04 51.9L820.2 49.82C824.1 47.98 827.4 45.16 829 42.88H823.54C822.82 42.88 821.96 42.92 821.26 42.96V40.3C821.84 40.38 822.8 40.44 823.48 40.44H830.1C830.08 39.92 830.06 39.44 830.04 39C829.98 38.14 829.92 37.5 829.84 36.98H832.68ZM855.06 37.48C855.02 38.04 854.98 38.68 854.98 39.48V43.44C854.98 47.74 854.14 49.6 852.66 51.24C851.34 52.68 849.26 53.66 847.8 54.12L845.72 51.92C847.7 51.46 849.32 50.7 850.52 49.4C851.9 47.9 852.16 46.4 852.16 43.28V39.48C852.16 38.68 852.12 38.04 852.04 37.48H855.06ZM845.78 37.64C845.74 38.1 845.72 38.54 845.72 39.18V45.94C845.72 46.44 845.74 47.22 845.78 47.68H842.88C842.9 47.3 842.98 46.52 842.98 45.92V39.18C842.98 38.8 842.96 38.1 842.9 37.64H845.78ZM862.14 38.8C862.88 38.88 863.92 38.92 864.6 38.92H874.68C875.26 38.92 876.1 38.9 876.44 38.88C876.42 39.34 876.38 40.14 876.38 40.72V51.08C876.38 51.78 876.42 52.84 876.46 53.44H873.56C873.58 53.12 873.58 52.78 873.58 52.4H864.46C863.68 52.4 862.54 52.46 861.88 52.52V49.66C862.58 49.72 863.48 49.78 864.38 49.78H873.6V41.5H864.62C863.78 41.5 862.7 41.54 862.14 41.58V38.8ZM894.5 38C894.5 38.6 895 39.08 895.6 39.08C896.2 39.08 896.68 38.6 896.68 38C896.68 37.4 896.2 36.92 895.6 36.92C895 36.92 894.5 37.4 894.5 38ZM893.28 38C893.28 36.72 894.32 35.68 895.6 35.68C896.88 35.68 897.9 36.72 897.9 38C897.9 39.28 896.88 40.32 895.6 40.32C894.32 40.32 893.28 39.28 893.28 38ZM890.52 37.22C890.48 37.5 890.34 38.46 890.34 38.96V40.56H895C895.56 40.56 896.44 40.5 896.98 40.42V43.04C896.34 43 895.56 42.98 895.02 42.98H890.34V52.28C890.34 53.44 889.68 54.16 888.26 54.16C887.18 54.16 886.02 54.1 885 53.98L884.76 51.5C885.62 51.66 886.5 51.74 886.98 51.74C887.5 51.74 887.7 51.54 887.72 51.02C887.74 50.28 887.74 43.94 887.74 43V42.98H882.66C882.06 42.98 881.28 43 880.72 43.06V40.4C881.32 40.48 882.02 40.56 882.66 40.56H887.74V38.96C887.74 38.44 887.64 37.56 887.56 37.22H890.52ZM885.82 45.82C884.9 47.6 883.06 50.22 881.96 51.4L879.8 49.92C881.14 48.64 882.74 46.44 883.56 44.76L885.82 45.82ZM894.42 44.7C895.44 45.98 897.04 48.5 897.84 49.96L895.48 51.24C894.62 49.52 893.2 47.1 892.24 45.88L894.42 44.7ZM900.24 45.22C903.82 44.3 906.76 43 908.98 41.64C911.04 40.36 913.32 38.36 914.62 36.78L916.78 38.84C915.26 40.34 913.34 41.9 911.4 43.18V51.26C911.4 52.14 911.44 53.38 911.58 53.88H908.42C908.5 53.4 908.56 52.14 908.56 51.26V44.86C906.5 45.94 903.96 47.02 901.5 47.74L900.24 45.22ZM923.82 37.8C925.22 38.74 927.82 40.82 928.98 42.04L926.94 44.12C925.9 43 923.4 40.82 921.94 39.8L923.82 37.8ZM921.32 51.12C924.44 50.68 927.04 49.66 928.98 48.5C932.4 46.48 935 43.42 936.26 40.72L937.82 43.54C936.3 46.24 933.64 49 930.42 50.94C928.4 52.16 925.82 53.28 923 53.76L921.32 51.12ZM945.28 51.08V39.58C945.28 38.88 945.22 37.88 945.08 37.18H948.2C948.12 37.88 948.02 38.76 948.02 39.58V42.54C950.7 43.32 954.54 44.74 956.38 45.64L955.24 48.4C953.18 47.32 950.18 46.16 948.02 45.42V51.08C948.02 51.66 948.12 53.06 948.2 53.88H945.08C945.2 53.08 945.28 51.88 945.28 51.08ZM968.72 36.96C968.62 37.46 968.48 38.12 968.22 38.96C970.12 38.86 972.12 38.68 973.88 38.38L973.86 40.7C971.96 40.98 969.5 41.14 967.34 41.2C967 41.94 966.6 42.66 966.2 43.24C966.72 43 967.8 42.84 968.46 42.84C969.68 42.84 970.68 43.36 971.12 44.38C972.16 43.9 973 43.56 973.82 43.2C974.6 42.86 975.3 42.54 976.04 42.16L977.04 44.48C976.4 44.66 975.34 45.06 974.66 45.32C973.76 45.68 972.62 46.12 971.4 46.68C971.42 47.8 971.46 49.28 971.48 50.2H969.08C969.14 49.6 969.16 48.64 969.18 47.76C967.68 48.62 966.88 49.4 966.88 50.4C966.88 51.5 967.82 51.8 969.78 51.8C971.48 51.8 973.7 51.58 975.46 51.24L975.38 53.82C974.06 54 971.6 54.16 969.72 54.16C966.58 54.16 964.26 53.4 964.26 50.82C964.26 48.26 966.66 46.66 968.94 45.48C968.64 44.98 968.1 44.8 967.54 44.8C966.42 44.8 965.18 45.44 964.42 46.18C963.82 46.78 963.24 47.5 962.56 48.38L960.42 46.78C962.52 44.84 963.94 43.06 964.84 41.26C964.74 41.26 964.66 41.26 964.58 41.26C963.76 41.26 962.3 41.22 961.2 41.14V38.8C962.22 38.96 963.7 39.04 964.72 39.04C965.02 39.04 965.36 39.04 965.68 39.04C965.9 38.24 966.04 37.46 966.08 36.74L968.72 36.96Z" fill="#555555"/>
<path d="M844.728 63.544C844.728 64.536 845.56 65.368 846.584 65.368C847.576 65.368 848.408 64.536 848.408 63.544C848.408 62.52 847.576 61.688 846.584 61.688C845.56 61.688 844.728 62.52 844.728 63.544ZM842.744 63.544C842.744 61.432 844.472 59.704 846.584 59.704C848.664 59.704 850.392 61.432 850.392 63.544C850.392 65.624 848.664 67.352 846.584 67.352C846.456 67.352 846.296 67.352 846.168 67.32C846.072 67.672 846.008 67.992 845.912 68.28C845.176 71.416 843.8 76.376 841.112 79.928C838.232 83.768 833.944 86.936 828.248 88.792L824.76 84.952C831.096 83.48 834.712 80.696 837.304 77.432C839.416 74.776 840.632 71.16 841.048 68.408H826.168C824.696 68.408 823.16 68.472 822.36 68.536V64.024C823.288 64.152 825.112 64.28 826.168 64.28H840.984C841.432 64.28 842.136 64.248 842.808 64.152C842.776 63.96 842.744 63.768 842.744 63.544ZM857.24 85.72C857.624 84.92 857.656 84.376 857.656 83.64V66.296C857.656 65.08 857.496 63.576 857.304 62.648H862.328C862.136 63.896 862.008 65.048 862.008 66.296V82.936C867.224 81.432 874.36 77.336 878.456 72.344L880.728 75.96C876.344 81.208 869.72 85.016 862.168 87.48C861.72 87.64 861.016 87.864 860.28 88.344L857.24 85.72ZM907.768 60.824C908.568 62.008 909.688 64.024 910.296 65.208L907.736 66.328C907.064 65.016 906.072 63.096 905.208 61.88L907.768 60.824ZM911.544 59.384C912.376 60.6 913.56 62.616 914.136 63.736L911.576 64.824C910.904 63.512 909.88 61.624 909.016 60.44L911.544 59.384ZM891.576 83.352V74.616C888.728 75.192 886.2 75.704 884.856 76.024L884.056 71.832C885.592 71.64 888.408 71.16 891.576 70.584V66.04C891.576 64.952 891.48 63.32 891.32 62.36H896.088C895.928 63.32 895.8 64.92 895.8 66.04V69.784C900.44 68.92 904.92 67.992 906.36 67.672C907.288 67.448 908.056 67.224 908.632 66.904L911.704 69.304C911.416 69.752 910.968 70.456 910.68 71.032C909.272 73.688 906.36 78.104 904.056 80.344L900.536 78.264C902.648 76.376 904.728 73.464 905.624 71.8C904.632 71.992 900.312 72.856 895.8 73.752V82.232C895.8 84.216 896.376 84.92 899.864 84.92C903.224 84.92 906.808 84.472 909.976 83.864L909.848 88.184C907.192 88.568 903.352 88.888 899.896 88.888C892.632 88.888 891.576 87.128 891.576 83.352ZM922.712 62.68C924.952 64.184 929.112 67.512 930.968 69.464L927.704 72.792C926.04 71 922.04 67.512 919.704 65.88L922.712 62.68ZM918.712 83.992C923.704 83.288 927.864 81.656 930.968 79.8C936.44 76.568 940.6 71.672 942.616 67.352L945.112 71.864C942.68 76.184 938.424 80.6 933.272 83.704C930.04 85.656 925.912 87.448 921.4 88.216L918.712 83.992ZM957.048 83.928V65.528C957.048 64.408 956.952 62.808 956.728 61.688H961.72C961.592 62.808 961.432 64.216 961.432 65.528V70.264C965.72 71.512 971.864 73.784 974.808 75.224L972.984 79.64C969.688 77.912 964.888 76.056 961.432 74.872V83.928C961.432 84.856 961.592 87.096 961.72 88.408H956.728C956.92 87.128 957.048 85.208 957.048 83.928Z" fill="#555555"/>
</svg>
