<svg width="22" height="22" viewBox="0 0 22 22" fill="none" xmlns="http://www.w3.org/2000/svg">
<g clip-path="url(#clip0_449_4572)">
<mask id="mask0_449_4572" style="mask-type:luminance" maskUnits="userSpaceOnUse" x="0" y="0" width="22" height="22">
<path d="M11.0007 20.1666C12.2047 20.1681 13.3971 19.9316 14.5094 19.4709C15.6218 19.0101 16.6321 18.3341 17.4824 17.4817C18.3348 16.6314 19.0109 15.621 19.4716 14.5087C19.9324 13.3964 20.1688 12.2039 20.1673 10.9999C20.1688 9.79593 19.9324 8.6035 19.4716 7.49115C19.0109 6.3788 18.3348 5.36846 17.4824 4.51818C16.6321 3.66575 15.6218 2.98973 14.5094 2.52897C13.3971 2.06821 12.2047 1.83177 11.0007 1.83326C9.79666 1.83177 8.60423 2.06821 7.49188 2.52897C6.37954 2.98973 5.3692 3.66575 4.51891 4.51818C3.66648 5.36846 2.99047 6.3788 2.5297 7.49115C2.06894 8.6035 1.83251 9.79593 1.83399 10.9999C1.83251 12.2039 2.06894 13.3964 2.5297 14.5087C2.99047 15.621 3.66648 16.6314 4.51891 17.4817C5.3692 18.3341 6.37954 19.0101 7.49188 19.4709C8.60423 19.9316 9.79666 20.1681 11.0007 20.1666Z" fill="white" stroke="white" stroke-width="2" stroke-linejoin="round"/>
<path d="M7.33398 11L10.084 13.75L15.584 8.25" stroke="black" stroke-width="2" stroke-linecap="round" stroke-linejoin="round"/>
</mask>
<g mask="url(#mask0_449_4572)">
<path d="M0 0H22V22H0V0Z" fill="#CA1528"/>
</g>
</g>
<defs>
<clipPath id="clip0_449_4572">
<rect width="22" height="22" fill="white"/>
</clipPath>
</defs>
</svg>
